<?xml version="1.0" encoding="utf-8"?>
<svg viewBox="0 0 500 500" xmlns="http://www.w3.org/2000/svg" xmlns:xlink="http://www.w3.org/1999/xlink" xmlns:bx="https://boxy-svg.com">
  <defs>
    <linearGradient id="gradient-3-2" gradientUnits="userSpaceOnUse" x1="12" y1="2" x2="12" y2="22" gradientTransform="matrix(0.613684, 0, 0, 0.613684, 4.057803, 3.05696)" xlink:href="#gradient-3"/>
    <linearGradient id="gradient-3" bx:pinned="true">
      <stop offset="1" style="stop-color: rgb(251, 73, 39);"/>
    </linearGradient>
    <linearGradient id="gradient-3-4" gradientUnits="userSpaceOnUse" x1="10.5" y1="14.5" x2="10.5" y2="14.5" gradientTransform="matrix(1, 0, 0, 1, 0, 0)" xlink:href="#gradient-3"/>
    <linearGradient id="gradient-3-0" gradientUnits="userSpaceOnUse" x1="518.743" y1="-487.1" x2="518.743" y2="1376.166" xlink:href="#gradient-3"/>
  </defs>
  <g id="SVGRepo_iconCarrier" transform="matrix(0.09839000552892685, 0, 0, 0.09839000552892685, 200.27345275878895, 201.52096557617188)" style="">
    <defs/>
    <path d="M 1433.739 365.51 L 1179.62 365.51 C 1143.644 61.066 902.21 -180.368 597.765 -216.344 L 597.765 -470.464 C 597.765 -479.614 590.279 -487.1 581.129 -487.1 L 456.357 -487.1 C 447.207 -487.1 439.72 -479.614 439.72 -470.464 L 439.72 -216.344 C 135.276 -180.368 -106.158 61.066 -142.134 365.51 L -396.254 365.51 C -405.404 365.51 -412.89 372.997 -412.89 382.147 L -412.89 506.919 C -412.89 516.069 -405.404 523.555 -396.254 523.555 L -142.134 523.555 C -119.332 716.516 -13.994 884.164 137.611 990.231 C 225.202 1051.511 328.236 1092.236 439.72 1105.41 L 439.72 1359.529 C 439.72 1368.679 447.207 1376.166 456.357 1376.166 L 581.129 1376.166 C 590.279 1376.166 597.765 1368.679 597.765 1359.529 L 597.765 1105.41 C 902.21 1069.434 1143.644 828 1179.62 523.555 L 1433.739 523.555 C 1442.889 523.555 1450.376 516.069 1450.376 506.919 L 1450.376 382.147 C 1450.376 372.997 1442.889 365.51 1433.739 365.51 Z M 518.743 951.94 C 238.421 951.94 11.336 724.855 11.336 444.533 C 11.336 164.211 238.421 -62.874 518.743 -62.874 C 799.065 -62.874 1026.15 164.211 1026.15 444.533 C 1026.15 724.855 799.065 951.94 518.743 951.94 Z" p-id="13306" style="fill-rule: nonzero; stroke-width: 142.291px; stroke-miterlimit: 9.76; fill: rgb(251, 73, 39); paint-order: fill; stroke: url('#gradient-3-0');"/>
    <path d="M 518.743 194.988 C 451.99 194.988 389.604 220.775 342.398 268.188 C 295.193 315.394 269.198 377.78 269.198 444.533 C 269.198 511.286 295.193 573.672 342.398 620.878 C 389.604 667.875 452.198 694.077 518.743 694.077 C 585.288 694.077 647.882 668.083 695.088 620.878 C 742.085 573.672 768.287 511.078 768.287 444.533 C 768.287 377.988 742.293 315.394 695.088 268.188 C 647.882 220.775 585.496 194.988 518.743 194.988 Z" p-id="13307" style="fill-rule: nonzero; stroke-width: 142.291px; stroke-miterlimit: 9.76; fill: rgb(251, 73, 39); paint-order: fill;"/>
  </g>
</svg>