<?xml version="1.0" encoding="utf-8"?>
<svg viewBox="0 0 500 500" xmlns="http://www.w3.org/2000/svg" xmlns:xlink="http://www.w3.org/1999/xlink" xmlns:bx="https://boxy-svg.com">
  <defs>
    <linearGradient id="gradient-3-2" gradientUnits="userSpaceOnUse" x1="12" y1="2" x2="12" y2="22" gradientTransform="matrix(0.613684, 0, 0, 0.613684, 4.057803, 3.05696)" xlink:href="#gradient-3"/>
    <linearGradient id="gradient-3" bx:pinned="true">
      <stop stop-color="#977601"/>
      <stop offset="1" stop-color="#fdcc1b"/>
    </linearGradient>
    <linearGradient id="gradient-3-4" gradientUnits="userSpaceOnUse" x1="10.5" y1="14.5" x2="10.5" y2="14.5" gradientTransform="matrix(1, 0, 0, 1, 0, 0)" xlink:href="#gradient-3"/>
    <linearGradient id="gradient-3-0" gradientUnits="userSpaceOnUse" x1="518.743" y1="-487.1" x2="518.743" y2="1376.166" xlink:href="#gradient-3"/>
    <linearGradient id="gradient-3-3" gradientUnits="userSpaceOnUse" x1="11.998" y1="12.349" x2="11.998" y2="22.01" xlink:href="#gradient-3"/>
    <linearGradient id="gradient-3-1" gradientUnits="userSpaceOnUse" x1="12" y1="2" x2="12" y2="18" xlink:href="#gradient-3"/>
  </defs>
  <g id="g-1" transform="matrix(8.747241973876953, 0, 0, 8.747241973876953, 145.07984924316395, 138.55050659179688)" style="">
    <path id="secondary" d="M21.94,17.89a1,1,0,0,1-.65.63l-2.71.8-1.69,2.27a1,1,0,0,1-.8.41h0a1,1,0,0,1-.81-.43l-2.88-4.11a1,1,0,0,1-.1-1,1,1,0,0,1,.75-.6,5.94,5.94,0,0,0,4.19-3,1,1,0,0,1,.82-.51,1,1,0,0,1,.87.43L21.82,17A1,1,0,0,1,21.94,17.89Zm-11-2a5.94,5.94,0,0,1-4.19-3,1,1,0,0,0-1.69-.08L2.18,17a1,1,0,0,0,.54,1.53l2.7.8,1.69,2.27a1,1,0,0,0,.8.41h0a1,1,0,0,0,.81-.43l2.88-4.11a1,1,0,0,0,.1-1A1,1,0,0,0,11,15.9Z" style="fill: url('#gradient-3-3'); stroke: rgb(255, 255, 255);"/>
    <circle id="primary" cx="12" cy="10" r="8" style="fill: url('#gradient-3-1');"/>
    <path id="secondary-2" data-name="secondary" d="M15,9.29a1,1,0,0,0-.83-.69l-.87-.12-.38-.7a1,1,0,0,0-1.76,0l-.38.7-.87.12a1,1,0,0,0-.54,1.73l.58.52-.13.72a1,1,0,0,0,.38,1,1,1,0,0,0,1,.11l.8-.39.8.39a1,1,0,0,0,.44.1,1,1,0,0,0,.6-.21,1,1,0,0,0,.38-1l-.13-.72.58-.52A1,1,0,0,0,15,9.29Z" style="fill: rgb(255, 255, 255);"/>
  </g>
</svg>