<svg width="816" height="135" viewBox="0 0 816 135" fill="none" xmlns="http://www.w3.org/2000/svg">
<path d="M94.0692 47.1944C91.0721 49.4706 88.0823 51.7842 85.0555 54.038C83.1489 55.456 81.0271 56.8292 81.91 59.6651C82.7854 62.4637 85.3374 63.1578 87.8301 63.6653C92.7858 64.6877 96.1836 61.6428 99.7149 58.9412C104.285 55.441 105.36 55.3963 109.938 58.8292C115.88 63.2921 121.786 67.8147 127.661 72.3821C130.814 74.83 130.755 77.0987 127.631 78.5764C126.259 79.2257 125.406 78.1062 124.501 77.457C121.504 75.3076 118.573 73.0612 115.813 70.994C114.493 71.0164 114.011 71.7104 113.551 72.5911C115.005 75.1733 117.601 76.4569 119.931 78.0167C120.999 78.7257 122.119 79.3451 122.854 80.4272C123.796 81.8154 123.544 83.2333 122.446 84.3229C121.207 85.5469 119.642 85.4424 118.299 84.4647C115.339 82.3228 112.445 80.0839 109.537 77.8674C108.625 77.1734 107.631 76.6286 106.785 77.7331C105.924 78.86 106.889 79.5765 107.705 80.1959C109.411 81.5019 111.125 82.793 112.853 84.0692C114.537 85.3155 114.938 86.9275 113.758 88.6142C112.542 90.3456 110.843 90.3381 109.196 89.1366C106.651 87.2708 104.144 85.3603 101.629 83.4647C100.813 82.8527 99.9078 82.5169 99.2252 83.4572C98.5724 84.3453 98.9878 85.1961 99.8558 85.8081C99.8929 85.8379 99.9374 85.8528 99.9671 85.8902C101.199 87.2708 104.188 87.7111 103.031 90.3754C101.896 92.98 99.2697 91.7188 97.4002 91.5247C86.9028 90.3978 78.3638 85.5618 71.8873 77.151C71.1899 76.2479 70.4258 75.8972 69.3204 75.9644C59.4387 76.5987 49.5496 77.1435 39.6753 77.8525C33.6809 78.2854 30.4538 73.8448 25.8394 70.5089C31.5814 69.5088 36.7078 68.6058 41.8415 67.7102C41.8415 67.6281 41.8267 67.5386 41.8267 67.4565C37.3903 67.6729 32.8797 67.4565 28.5324 68.1953C21.7517 69.3596 17.1521 66.2475 13.0792 61.5085C12.048 60.3144 10.9797 59.1502 9.62948 57.6352H49.8537C49.8537 57.5232 49.8537 57.4187 49.8611 57.3068C42.754 56.8366 35.6543 56.3665 28.5472 55.9037C23.8586 55.5978 19.1625 55.344 14.4739 55.0007C11.959 54.8141 10.1933 53.1648 8.67989 51.3961C5.50468 47.7019 2.67074 43.7465 0 39C4.01352 39.7687 7.55966 40.4404 11.0984 41.1344C27.9389 44.4182 44.7793 47.7168 61.6272 50.9931C64.6689 51.5827 67.7106 52.3663 70.7819 52.5678C76.116 52.9111 80.6785 49.9557 85.5896 48.5004C87.8227 47.8362 89.9889 46.963 92.1849 46.1869C92.9638 45.9108 93.6315 45.9182 94.0692 47.2019V47.1944Z" fill="#102C57"/>
<path d="M203.993 39C200.528 44.6217 197.611 50.3244 192.073 53.7533C188.8 55.7769 184.773 54.8865 181.086 55.1661C171.868 55.8725 162.636 56.3435 153.411 57.1308H194.316C193.02 58.654 191.991 59.8975 190.925 61.1116C187.194 65.3647 183.04 68.411 176.792 67.6016C172.039 66.9909 167.197 67.0865 162.332 67.1748C167.426 68.0358 172.52 68.8967 177.651 69.765C175.822 73.7164 167.996 77.3293 162.695 76.9761C153.293 76.3506 143.875 75.8135 134.465 75.2984C133.11 75.2248 132.348 74.8054 132.066 73.4515C131.644 71.4132 130.016 70.3095 128.49 69.1689C122.049 64.364 115.601 59.5664 109.145 54.7761C106.08 52.5024 102.356 52.4951 99.2536 54.7173C97.0769 56.2772 94.9817 57.9696 92.7236 59.3972C90.1545 61.016 87.4522 60.8835 84.8535 59.2868C84.0169 58.7717 83.6171 57.9623 84.4908 57.3074C89.4956 53.54 94.4634 49.721 99.6312 46.1817C103.318 43.6578 107.042 45.5121 110.648 46.8439C115.001 48.4554 119.317 50.1772 123.7 51.7225C127.713 53.1353 131.718 52.0757 135.702 51.3546C158.001 47.2781 180.301 43.2089 202.601 39.1398C202.934 39.0809 203.282 39.0736 204 39.0074L203.993 39Z" fill="#102C57"/>
<path d="M151.074 34.4708V43.6626H165.956C165.971 43.7868 165.985 43.9109 166 44.035C158.004 45.6019 150.016 47.1687 141.777 48.7822V40.6297C116.438 29.7856 91.2669 29.8244 65.839 40.5599V50C56.704 47.991 47.8557 46.0518 39 44.1048C39.0147 43.9884 39.022 43.8721 39.0367 43.7557H56.2851V34.6725C74.1949 19.2053 128.255 19.0812 151.067 34.4708H151.074Z" fill="#102C57"/>
<path d="M61.0149 79.566C67.3579 77.9834 70.5889 79.566 75.0008 86.2682C81.7375 96.5074 90.5242 104.53 101.383 110.488C104.503 112.202 106.374 110.101 108.283 108.935C112.725 106.214 117.107 103.275 121.036 99.8913C126.28 95.3624 130.417 89.8271 133.782 83.7886C134.569 82.3884 135.304 80.9589 136.136 79.4055C139.271 79.4639 142.442 79.0482 146 79.7702C144.767 82.3154 143.712 84.7002 142.494 86.9975C136.211 98.8338 127.298 108.322 115.77 115.396C112.138 117.628 108.328 119.589 104.607 121.683C103.968 122.04 103.381 122.135 102.676 121.763C90.2642 115.228 78.67 107.717 70.3215 96.1938C66.5706 91.0231 63.4362 85.5535 61 79.5733L61.0149 79.566Z" fill="#102C57"/>
<path d="M242.48 74.616C240.045 74.616 237.787 74.2347 235.704 73.472C233.621 72.68 231.817 71.5653 230.292 70.128C228.796 68.6907 227.623 67.004 226.772 65.068C225.921 63.1027 225.496 60.9467 225.496 58.6C225.496 56.2533 225.921 54.112 226.772 52.176C227.623 50.2107 228.811 48.5093 230.336 47.072C231.861 45.6347 233.665 44.5347 235.748 43.772C237.86 42.98 240.163 42.584 242.656 42.584C245.56 42.584 248.156 43.068 250.444 44.036C252.732 45.004 254.624 46.3973 256.12 48.216L250.576 53.232C249.52 52.088 248.376 51.2373 247.144 50.68C245.941 50.0933 244.592 49.8 243.096 49.8C241.776 49.8 240.573 50.0053 239.488 50.416C238.403 50.8267 237.479 51.428 236.716 52.22C235.953 52.9827 235.352 53.9067 234.912 54.992C234.501 56.048 234.296 57.2507 234.296 58.6C234.296 59.8907 234.501 61.0787 234.912 62.164C235.352 63.2493 235.953 64.188 236.716 64.98C237.479 65.7427 238.388 66.344 239.444 66.784C240.529 67.1947 241.717 67.4 243.008 67.4C244.299 67.4 245.56 67.1947 246.792 66.784C248.024 66.344 249.271 65.6107 250.532 64.584L255.416 70.7C253.656 71.9613 251.617 72.9293 249.3 73.604C246.983 74.2787 244.709 74.616 242.48 74.616ZM247.716 69.556V57.94H255.416V70.7L247.716 69.556ZM260.939 74V43.2H269.651V67.092H284.347V74H260.939ZM284.4 74L297.996 43.2H306.576L320.216 74H311.152L300.504 47.468H303.936L293.288 74H284.4ZM291.836 68.016L294.08 61.592H309.128L311.372 68.016H291.836ZM336.253 74.616C331.706 74.616 328.157 73.3693 325.605 70.876C323.053 68.3827 321.777 64.848 321.777 60.272V43.2H330.489V60.008C330.489 62.648 331.002 64.54 332.029 65.684C333.085 66.828 334.522 67.4 336.341 67.4C338.16 67.4 339.582 66.828 340.609 65.684C341.636 64.54 342.149 62.648 342.149 60.008V43.2H350.729V60.272C350.729 64.848 349.453 68.3827 346.901 70.876C344.349 73.3693 340.8 74.616 336.253 74.616ZM356.631 74V43.2H372.383C376.431 43.2 379.452 43.948 381.447 45.444C383.441 46.9107 384.439 48.8467 384.439 51.252C384.439 52.836 384.013 54.2293 383.163 55.432C382.341 56.6053 381.168 57.544 379.643 58.248C378.147 58.9227 376.357 59.26 374.275 59.26L375.155 57.148C377.325 57.148 379.217 57.4853 380.831 58.16C382.444 58.8053 383.691 59.7587 384.571 61.02C385.48 62.252 385.935 63.7627 385.935 65.552C385.935 68.2213 384.849 70.304 382.679 71.8C380.537 73.2667 377.399 74 373.263 74H356.631ZM365.255 67.708H372.559C374.055 67.708 375.184 67.4587 375.947 66.96C376.739 66.432 377.135 65.64 377.135 64.584C377.135 63.528 376.739 62.7507 375.947 62.252C375.184 61.724 374.055 61.46 372.559 61.46H364.639V55.432H371.239C372.705 55.432 373.805 55.1827 374.539 54.684C375.272 54.1853 375.639 53.4373 375.639 52.44C375.639 51.4427 375.272 50.7093 374.539 50.24C373.805 49.7413 372.705 49.492 371.239 49.492H365.255V67.708ZM398.455 55.124H412.755V61.636H398.455V55.124ZM399.071 67.268H415.175V74H390.447V43.2H414.603V49.932H399.071V67.268Z" fill="#977601"/>
<path d="M448.17 74.616C445.736 74.616 443.477 74.2347 441.394 73.472C439.341 72.68 437.552 71.5653 436.026 70.128C434.53 68.6907 433.357 67.004 432.506 65.068C431.656 63.1027 431.23 60.9467 431.23 58.6C431.23 56.2533 431.656 54.112 432.506 52.176C433.357 50.2107 434.53 48.5093 436.026 47.072C437.552 45.6347 439.341 44.5347 441.394 43.772C443.477 42.98 445.736 42.584 448.17 42.584C451.016 42.584 453.553 43.0827 455.782 44.08C458.041 45.0773 459.918 46.5147 461.414 48.392L455.87 53.408C454.873 52.2347 453.773 51.34 452.57 50.724C451.397 50.108 450.077 49.8 448.61 49.8C447.349 49.8 446.19 50.0053 445.134 50.416C444.078 50.8267 443.169 51.428 442.406 52.22C441.673 52.9827 441.086 53.9067 440.646 54.992C440.236 56.0773 440.03 57.28 440.03 58.6C440.03 59.92 440.236 61.1227 440.646 62.208C441.086 63.2933 441.673 64.232 442.406 65.024C443.169 65.7867 444.078 66.3733 445.134 66.784C446.19 67.1947 447.349 67.4 448.61 67.4C450.077 67.4 451.397 67.092 452.57 66.476C453.773 65.86 454.873 64.9653 455.87 63.792L461.414 68.808C459.918 70.656 458.041 72.0933 455.782 73.12C453.553 74.1173 451.016 74.616 448.17 74.616ZM480.186 74.616C477.722 74.616 475.449 74.22 473.366 73.428C471.284 72.636 469.465 71.5213 467.91 70.084C466.385 68.6173 465.197 66.916 464.346 64.98C463.496 63.044 463.07 60.9173 463.07 58.6C463.07 56.2827 463.496 54.156 464.346 52.22C465.197 50.284 466.385 48.5973 467.91 47.16C469.465 45.6933 471.284 44.564 473.366 43.772C475.449 42.98 477.722 42.584 480.186 42.584C482.68 42.584 484.953 42.98 487.006 43.772C489.089 44.564 490.893 45.6933 492.418 47.16C493.944 48.5973 495.132 50.284 495.982 52.22C496.862 54.156 497.302 56.2827 497.302 58.6C497.302 60.9173 496.862 63.0587 495.982 65.024C495.132 66.96 493.944 68.6467 492.418 70.084C490.893 71.5213 489.089 72.636 487.006 73.428C484.953 74.22 482.68 74.616 480.186 74.616ZM480.186 67.4C481.36 67.4 482.445 67.1947 483.442 66.784C484.469 66.3733 485.349 65.7867 486.082 65.024C486.845 64.232 487.432 63.2933 487.842 62.208C488.282 61.1227 488.502 59.92 488.502 58.6C488.502 57.2507 488.282 56.048 487.842 54.992C487.432 53.9067 486.845 52.9827 486.082 52.22C485.349 51.428 484.469 50.8267 483.442 50.416C482.445 50.0053 481.36 49.8 480.186 49.8C479.013 49.8 477.913 50.0053 476.886 50.416C475.889 50.8267 475.009 51.428 474.246 52.22C473.513 52.9827 472.926 53.9067 472.486 54.992C472.076 56.048 471.87 57.2507 471.87 58.6C471.87 59.92 472.076 61.1227 472.486 62.208C472.926 63.2933 473.513 64.232 474.246 65.024C475.009 65.7867 475.889 66.3733 476.886 66.784C477.913 67.1947 479.013 67.4 480.186 67.4ZM501.865 74V43.2H509.037L526.021 63.704H522.633V43.2H531.169V74H523.997L507.013 53.496H510.401V74H501.865ZM548.138 74.616C545.616 74.616 543.181 74.308 540.834 73.692C538.517 73.0467 536.625 72.2253 535.158 71.228L538.018 64.804C539.397 65.684 540.981 66.4173 542.77 67.004C544.589 67.5613 546.393 67.84 548.182 67.84C549.385 67.84 550.353 67.7373 551.086 67.532C551.82 67.2973 552.348 67.004 552.67 66.652C553.022 66.2707 553.198 65.8307 553.198 65.332C553.198 64.628 552.876 64.0707 552.23 63.66C551.585 63.2493 550.749 62.912 549.722 62.648C548.696 62.384 547.552 62.12 546.29 61.856C545.058 61.592 543.812 61.2547 542.55 60.844C541.318 60.4333 540.189 59.9053 539.162 59.26C538.136 58.5853 537.3 57.72 536.654 56.664C536.009 55.5787 535.686 54.2147 535.686 52.572C535.686 50.724 536.185 49.052 537.182 47.556C538.209 46.06 539.734 44.8573 541.758 43.948C543.782 43.0387 546.305 42.584 549.326 42.584C551.35 42.584 553.33 42.8187 555.266 43.288C557.232 43.728 558.977 44.388 560.502 45.268L557.818 51.736C556.352 50.944 554.9 50.3573 553.462 49.976C552.025 49.5653 550.632 49.36 549.282 49.36C548.08 49.36 547.112 49.492 546.378 49.756C545.645 49.9907 545.117 50.3133 544.794 50.724C544.472 51.1347 544.31 51.604 544.31 52.132C544.31 52.8067 544.618 53.3493 545.234 53.76C545.88 54.1413 546.716 54.464 547.742 54.728C548.798 54.9627 549.942 55.212 551.174 55.476C552.436 55.74 553.682 56.0773 554.914 56.488C556.176 56.8693 557.32 57.3973 558.346 58.072C559.373 58.7173 560.194 59.5827 560.81 60.668C561.456 61.724 561.778 63.0587 561.778 64.672C561.778 66.4613 561.265 68.1187 560.238 69.644C559.241 71.14 557.73 72.3427 555.706 73.252C553.712 74.1613 551.189 74.616 548.138 74.616ZM580.015 74.616C575.468 74.616 571.919 73.3693 569.367 70.876C566.815 68.3827 565.539 64.848 565.539 60.272V43.2H574.251V60.008C574.251 62.648 574.764 64.54 575.791 65.684C576.847 66.828 578.284 67.4 580.103 67.4C581.921 67.4 583.344 66.828 584.371 65.684C585.397 64.54 585.911 62.648 585.911 60.008V43.2H594.491V60.272C594.491 64.848 593.215 68.3827 590.663 70.876C588.111 73.3693 584.561 74.616 580.015 74.616ZM600.393 74V43.2H609.105V67.092H623.801V74H600.393ZM630.925 74V50.108H621.465V43.2H649.053V50.108H639.637V74H630.925ZM647.056 74L660.652 43.2H669.232L682.872 74H673.808L663.16 47.468H666.592L655.944 74H647.056ZM654.492 68.016L656.736 61.592H671.784L674.028 68.016H654.492ZM685.342 74V43.2H692.514L709.498 63.704H706.11V43.2H714.646V74H707.474L690.49 53.496H693.878V74H685.342ZM736.147 74.616C733.712 74.616 731.454 74.2347 729.371 73.472C727.318 72.68 725.528 71.5653 724.003 70.128C722.507 68.6907 721.334 67.004 720.483 65.068C719.632 63.1027 719.207 60.9467 719.207 58.6C719.207 56.2533 719.632 54.112 720.483 52.176C721.334 50.2107 722.507 48.5093 724.003 47.072C725.528 45.6347 727.318 44.5347 729.371 43.772C731.454 42.98 733.712 42.584 736.147 42.584C738.992 42.584 741.53 43.0827 743.759 44.08C746.018 45.0773 747.895 46.5147 749.391 48.392L743.847 53.408C742.85 52.2347 741.75 51.34 740.547 50.724C739.374 50.108 738.054 49.8 736.587 49.8C735.326 49.8 734.167 50.0053 733.111 50.416C732.055 50.8267 731.146 51.428 730.383 52.22C729.65 52.9827 729.063 53.9067 728.623 54.992C728.212 56.0773 728.007 57.28 728.007 58.6C728.007 59.92 728.212 61.1227 728.623 62.208C729.063 63.2933 729.65 64.232 730.383 65.024C731.146 65.7867 732.055 66.3733 733.111 66.784C734.167 67.1947 735.326 67.4 736.587 67.4C738.054 67.4 739.374 67.092 740.547 66.476C741.75 65.86 742.85 64.9653 743.847 63.792L749.391 68.808C747.895 70.656 746.018 72.0933 743.759 73.12C741.53 74.1173 738.992 74.616 736.147 74.616ZM760.934 74V60.976L762.958 66.212L749.186 43.2H758.382L768.326 59.876H763.002L772.99 43.2H781.438L767.71 66.212L769.646 60.976V74H760.934Z" fill="#102C57"/>
<path d="M228.912 96H227.488V85.84H224.16V84.576H232.208V85.84H228.912V96ZM240.345 87.424V96H239.225L239.017 94.864H238.953C238.782 95.1627 238.558 95.408 238.281 95.6C238.014 95.792 237.721 95.9307 237.401 96.016C237.081 96.112 236.745 96.16 236.393 96.16C235.753 96.16 235.214 96.0533 234.777 95.84C234.339 95.616 234.009 95.2747 233.785 94.816C233.571 94.3573 233.465 93.7653 233.465 93.04V87.424H234.873V92.944C234.873 93.6267 235.017 94.1387 235.305 94.48C235.593 94.8213 236.035 94.992 236.633 94.992C237.219 94.992 237.678 94.8747 238.009 94.64C238.35 94.3947 238.59 94.0427 238.729 93.584C238.878 93.1147 238.953 92.5493 238.953 91.888V87.424H240.345ZM247.337 87.264C247.486 87.264 247.646 87.2747 247.817 87.296C247.987 87.3067 248.137 87.328 248.265 87.36L248.105 88.656C247.977 88.624 247.833 88.5973 247.673 88.576C247.523 88.5547 247.379 88.544 247.241 88.544C246.931 88.544 246.638 88.6133 246.361 88.752C246.083 88.8907 245.833 89.088 245.609 89.344C245.395 89.5893 245.225 89.888 245.097 90.24C244.969 90.592 244.905 90.9867 244.905 91.424V96H243.513V87.424H244.649L244.809 88.992H244.873C245.043 88.672 245.246 88.384 245.481 88.128C245.726 87.8613 246.003 87.6533 246.313 87.504C246.622 87.344 246.963 87.264 247.337 87.264ZM254.339 87.264C255.299 87.264 256.024 87.5147 256.515 88.016C257.016 88.5067 257.267 89.3067 257.267 90.416V96H255.875V90.512C255.875 89.8187 255.731 89.3013 255.443 88.96C255.155 88.6187 254.712 88.448 254.115 88.448C253.24 88.448 252.632 88.7147 252.291 89.248C251.96 89.7813 251.795 90.5493 251.795 91.552V96H250.403V87.424H251.523L251.731 88.592H251.811C251.981 88.2933 252.2 88.048 252.467 87.856C252.733 87.6533 253.027 87.504 253.347 87.408C253.667 87.312 253.997 87.264 254.339 87.264ZM261.795 87.424V96H260.403V87.424H261.795ZM261.107 84.208C261.32 84.208 261.507 84.2827 261.667 84.432C261.827 84.5707 261.907 84.7947 261.907 85.104C261.907 85.4027 261.827 85.6267 261.667 85.776C261.507 85.9253 261.32 86 261.107 86C260.883 86 260.691 85.9253 260.531 85.776C260.371 85.6267 260.291 85.4027 260.291 85.104C260.291 84.7947 260.371 84.5707 260.531 84.432C260.691 84.2827 260.883 84.208 261.107 84.208ZM268.9 87.264C269.86 87.264 270.585 87.5147 271.076 88.016C271.577 88.5067 271.828 89.3067 271.828 90.416V96H270.436V90.512C270.436 89.8187 270.292 89.3013 270.004 88.96C269.716 88.6187 269.273 88.448 268.676 88.448C267.801 88.448 267.193 88.7147 266.852 89.248C266.521 89.7813 266.356 90.5493 266.356 91.552V96H264.964V87.424H266.084L266.292 88.592H266.372C266.543 88.2933 266.761 88.048 267.028 87.856C267.295 87.6533 267.588 87.504 267.908 87.408C268.228 87.312 268.559 87.264 268.9 87.264ZM277.796 87.264C278.329 87.264 278.804 87.3707 279.22 87.584C279.646 87.7973 280.009 88.1227 280.308 88.56H280.388L280.564 87.424H281.684V96.144C281.684 96.9547 281.55 97.632 281.284 98.176C281.028 98.7307 280.628 99.1467 280.084 99.424C279.55 99.7013 278.868 99.84 278.036 99.84C277.449 99.84 276.916 99.792 276.436 99.696C275.956 99.6107 275.518 99.4773 275.124 99.296V98C275.39 98.1387 275.678 98.256 275.988 98.352C276.308 98.4587 276.644 98.5387 276.996 98.592C277.358 98.6453 277.732 98.672 278.116 98.672C278.798 98.672 279.332 98.4533 279.716 98.016C280.11 97.5893 280.308 97.0027 280.308 96.256V95.92C280.308 95.792 280.313 95.6107 280.324 95.376C280.334 95.1307 280.345 94.96 280.356 94.864H280.292C280.014 95.3013 279.668 95.6267 279.252 95.84C278.836 96.0533 278.356 96.16 277.812 96.16C276.777 96.16 275.966 95.7707 275.38 94.992C274.793 94.2133 274.5 93.1253 274.5 91.728C274.5 90.8107 274.628 90.0213 274.884 89.36C275.15 88.688 275.529 88.1707 276.02 87.808C276.521 87.4453 277.113 87.264 277.796 87.264ZM278.02 88.448C277.582 88.448 277.204 88.576 276.884 88.832C276.574 89.088 276.34 89.4613 276.18 89.952C276.02 90.4427 275.94 91.04 275.94 91.744C275.94 92.8 276.116 93.6107 276.468 94.176C276.83 94.7307 277.358 95.008 278.052 95.008C278.446 95.008 278.788 94.9547 279.076 94.848C279.364 94.7307 279.598 94.5547 279.78 94.32C279.961 94.0747 280.094 93.7653 280.18 93.392C280.276 93.0187 280.324 92.576 280.324 92.064V91.728C280.324 90.9493 280.238 90.32 280.068 89.84C279.908 89.36 279.657 89.008 279.316 88.784C278.985 88.56 278.553 88.448 278.02 88.448ZM292.248 87.264C292.781 87.264 293.256 87.3707 293.672 87.584C294.098 87.7973 294.461 88.1227 294.76 88.56H294.84L295.016 87.424H296.136V96.144C296.136 96.9547 296.002 97.632 295.736 98.176C295.48 98.7307 295.08 99.1467 294.536 99.424C294.002 99.7013 293.32 99.84 292.488 99.84C291.901 99.84 291.368 99.792 290.888 99.696C290.408 99.6107 289.97 99.4773 289.576 99.296V98C289.842 98.1387 290.13 98.256 290.44 98.352C290.76 98.4587 291.096 98.5387 291.448 98.592C291.81 98.6453 292.184 98.672 292.568 98.672C293.25 98.672 293.784 98.4533 294.168 98.016C294.562 97.5893 294.76 97.0027 294.76 96.256V95.92C294.76 95.792 294.765 95.6107 294.776 95.376C294.786 95.1307 294.797 94.96 294.808 94.864H294.744C294.466 95.3013 294.12 95.6267 293.704 95.84C293.288 96.0533 292.808 96.16 292.264 96.16C291.229 96.16 290.418 95.7707 289.832 94.992C289.245 94.2133 288.952 93.1253 288.952 91.728C288.952 90.8107 289.08 90.0213 289.336 89.36C289.602 88.688 289.981 88.1707 290.472 87.808C290.973 87.4453 291.565 87.264 292.248 87.264ZM292.472 88.448C292.034 88.448 291.656 88.576 291.336 88.832C291.026 89.088 290.792 89.4613 290.632 89.952C290.472 90.4427 290.392 91.04 290.392 91.744C290.392 92.8 290.568 93.6107 290.92 94.176C291.282 94.7307 291.81 95.008 292.504 95.008C292.898 95.008 293.24 94.9547 293.528 94.848C293.816 94.7307 294.05 94.5547 294.232 94.32C294.413 94.0747 294.546 93.7653 294.632 93.392C294.728 93.0187 294.776 92.576 294.776 92.064V91.728C294.776 90.9493 294.69 90.32 294.52 89.84C294.36 89.36 294.109 89.008 293.768 88.784C293.437 88.56 293.005 88.448 292.472 88.448ZM300.697 96H299.305V83.84H300.697V96ZM310.923 91.696C310.923 92.4107 310.832 93.0453 310.651 93.6C310.48 94.144 310.23 94.608 309.899 94.992C309.568 95.376 309.168 95.6693 308.699 95.872C308.23 96.064 307.707 96.16 307.131 96.16C306.598 96.16 306.102 96.064 305.643 95.872C305.195 95.6693 304.8 95.376 304.459 94.992C304.128 94.608 303.872 94.144 303.691 93.6C303.51 93.0453 303.419 92.4107 303.419 91.696C303.419 90.7467 303.568 89.9467 303.867 89.296C304.176 88.6347 304.614 88.1333 305.179 87.792C305.744 87.44 306.411 87.264 307.179 87.264C307.915 87.264 308.56 87.44 309.115 87.792C309.68 88.1333 310.123 88.6347 310.443 89.296C310.763 89.9467 310.923 90.7467 310.923 91.696ZM304.859 91.696C304.859 92.368 304.939 92.9547 305.099 93.456C305.259 93.9467 305.51 94.3253 305.851 94.592C306.192 94.8587 306.63 94.992 307.163 94.992C307.696 94.992 308.134 94.8587 308.475 94.592C308.816 94.3253 309.067 93.9467 309.227 93.456C309.398 92.9547 309.483 92.368 309.483 91.696C309.483 91.0133 309.398 90.432 309.227 89.952C309.067 89.472 308.816 89.104 308.475 88.848C308.134 88.5813 307.691 88.448 307.147 88.448C306.347 88.448 305.766 88.736 305.403 89.312C305.04 89.888 304.859 90.6827 304.859 91.696ZM315.024 86.8C315.024 87.1627 315.013 87.504 314.992 87.824C314.981 88.1333 314.965 88.3787 314.944 88.56H315.024C315.248 88.1973 315.563 87.8933 315.968 87.648C316.373 87.4027 316.885 87.28 317.504 87.28C318.507 87.28 319.307 87.6533 319.904 88.4C320.512 89.136 320.816 90.24 320.816 91.712C320.816 92.6933 320.677 93.5147 320.4 94.176C320.123 94.8373 319.733 95.3333 319.232 95.664C318.741 95.9947 318.165 96.16 317.504 96.16C316.875 96.16 316.357 96.0373 315.952 95.792C315.557 95.5467 315.248 95.2533 315.024 94.912H314.912L314.64 96H313.632V83.84H315.024V86.8ZM317.248 88.448C316.693 88.448 316.251 88.5653 315.92 88.8C315.6 89.024 315.371 89.376 315.232 89.856C315.093 90.3253 315.024 90.928 315.024 91.664V91.728C315.024 92.784 315.179 93.5947 315.488 94.16C315.808 94.7147 316.405 94.992 317.28 94.992C317.973 94.992 318.496 94.7093 318.848 94.144C319.2 93.5787 319.376 92.7627 319.376 91.696C319.376 90.6187 319.2 89.808 318.848 89.264C318.496 88.72 317.963 88.448 317.248 88.448ZM326.626 87.28C327.607 87.28 328.338 87.5093 328.818 87.968C329.308 88.4267 329.554 89.1573 329.554 90.16V96H328.546L328.274 94.784H328.21C327.975 95.0933 327.735 95.3547 327.49 95.568C327.255 95.7707 326.978 95.92 326.658 96.016C326.348 96.112 325.964 96.16 325.506 96.16C325.026 96.16 324.594 96.0693 324.21 95.888C323.826 95.7067 323.522 95.4293 323.298 95.056C323.074 94.672 322.962 94.192 322.962 93.616C322.962 92.7627 323.276 92.1067 323.906 91.648C324.535 91.1787 325.506 90.9227 326.818 90.88L328.178 90.832V90.32C328.178 89.6053 328.034 89.1093 327.746 88.832C327.468 88.5547 327.068 88.416 326.546 88.416C326.13 88.416 325.73 88.4853 325.346 88.624C324.972 88.752 324.615 88.9013 324.274 89.072L323.842 88.016C324.204 87.8133 324.626 87.6427 325.106 87.504C325.586 87.3547 326.092 87.28 326.626 87.28ZM327.01 91.856C326.028 91.8987 325.346 92.0693 324.962 92.368C324.588 92.6667 324.402 93.088 324.402 93.632C324.402 94.112 324.535 94.464 324.802 94.688C325.068 94.912 325.415 95.024 325.842 95.024C326.503 95.024 327.058 94.8267 327.506 94.432C327.954 94.0267 328.178 93.408 328.178 92.576V91.808L327.01 91.856ZM334.07 96H332.678V83.84H334.07V96ZM344.634 96.16C343.642 96.16 342.842 95.792 342.234 95.056C341.637 94.3093 341.338 93.2 341.338 91.728C341.338 90.256 341.642 89.1467 342.25 88.4C342.858 87.6427 343.658 87.264 344.65 87.264C345.066 87.264 345.429 87.3227 345.738 87.44C346.047 87.5467 346.314 87.696 346.538 87.888C346.773 88.08 346.97 88.2933 347.13 88.528H347.226C347.215 88.3893 347.194 88.1867 347.162 87.92C347.141 87.6427 347.13 87.424 347.13 87.264V83.84H348.522V96H347.402L347.194 94.848H347.13C346.97 95.0933 346.773 95.3173 346.538 95.52C346.314 95.712 346.042 95.8667 345.722 95.984C345.413 96.1013 345.05 96.16 344.634 96.16ZM344.89 94.992C345.722 94.992 346.303 94.7467 346.634 94.256C346.975 93.7547 347.146 93.0027 347.146 92V91.744C347.146 90.6773 346.986 89.8613 346.666 89.296C346.346 88.72 345.749 88.432 344.874 88.432C344.17 88.432 343.642 88.736 343.29 89.344C342.949 89.9413 342.778 90.7467 342.778 91.76C342.778 92.784 342.949 93.5787 343.29 94.144C343.642 94.7093 344.175 94.992 344.89 94.992ZM355.515 87.264C355.665 87.264 355.825 87.2747 355.995 87.296C356.166 87.3067 356.315 87.328 356.443 87.36L356.283 88.656C356.155 88.624 356.011 88.5973 355.851 88.576C355.702 88.5547 355.558 88.544 355.419 88.544C355.11 88.544 354.817 88.6133 354.539 88.752C354.262 88.8907 354.011 89.088 353.787 89.344C353.574 89.5893 353.403 89.888 353.275 90.24C353.147 90.592 353.083 90.9867 353.083 91.424V96H351.691V87.424H352.827L352.987 88.992H353.051C353.222 88.672 353.425 88.384 353.659 88.128C353.905 87.8613 354.182 87.6533 354.491 87.504C354.801 87.344 355.142 87.264 355.515 87.264ZM361.421 87.264C362.114 87.264 362.711 87.424 363.213 87.744C363.714 88.064 364.098 88.5173 364.365 89.104C364.642 89.68 364.781 90.3573 364.781 91.136V91.984H359.277C359.298 92.9547 359.527 93.696 359.965 94.208C360.402 94.7093 361.015 94.96 361.805 94.96C362.317 94.96 362.77 94.912 363.165 94.816C363.57 94.7093 363.986 94.56 364.413 94.368V95.6C363.997 95.792 363.586 95.9307 363.181 96.016C362.786 96.112 362.306 96.16 361.741 96.16C360.973 96.16 360.295 95.9947 359.709 95.664C359.122 95.3333 358.663 94.8427 358.333 94.192C358.002 93.5307 357.837 92.7253 357.837 91.776C357.837 90.8373 357.986 90.032 358.285 89.36C358.583 88.688 358.999 88.1707 359.533 87.808C360.077 87.4453 360.706 87.264 361.421 87.264ZM361.421 88.416C360.802 88.416 360.311 88.6347 359.949 89.072C359.586 89.4987 359.373 90.096 359.309 90.864H363.341C363.341 90.3733 363.271 89.9467 363.133 89.584C362.994 89.2213 362.781 88.9387 362.493 88.736C362.215 88.5227 361.858 88.416 361.421 88.416ZM370.528 87.28C371.51 87.28 372.24 87.5093 372.72 87.968C373.211 88.4267 373.456 89.1573 373.456 90.16V96H372.448L372.176 94.784H372.112C371.878 95.0933 371.638 95.3547 371.392 95.568C371.158 95.7707 370.88 95.92 370.56 96.016C370.251 96.112 369.867 96.16 369.408 96.16C368.928 96.16 368.496 96.0693 368.112 95.888C367.728 95.7067 367.424 95.4293 367.2 95.056C366.976 94.672 366.864 94.192 366.864 93.616C366.864 92.7627 367.179 92.1067 367.808 91.648C368.438 91.1787 369.408 90.9227 370.72 90.88L372.08 90.832V90.32C372.08 89.6053 371.936 89.1093 371.648 88.832C371.371 88.5547 370.971 88.416 370.448 88.416C370.032 88.416 369.632 88.4853 369.248 88.624C368.875 88.752 368.518 88.9013 368.176 89.072L367.744 88.016C368.107 87.8133 368.528 87.6427 369.008 87.504C369.488 87.3547 369.995 87.28 370.528 87.28ZM370.912 91.856C369.931 91.8987 369.248 92.0693 368.864 92.368C368.491 92.6667 368.304 93.088 368.304 93.632C368.304 94.112 368.438 94.464 368.704 94.688C368.971 94.912 369.318 95.024 369.744 95.024C370.406 95.024 370.96 94.8267 371.408 94.432C371.856 94.0267 372.08 93.408 372.08 92.576V91.808L370.912 91.856ZM385.492 87.264C386.41 87.264 387.092 87.5147 387.54 88.016C387.988 88.5067 388.212 89.3067 388.212 90.416V96H386.836V90.48C386.836 89.808 386.703 89.3013 386.436 88.96C386.18 88.6187 385.775 88.448 385.22 88.448C384.452 88.448 383.903 88.688 383.572 89.168C383.252 89.648 383.092 90.3467 383.092 91.264V96H381.7V90.48C381.7 90.032 381.642 89.6587 381.524 89.36C381.407 89.0507 381.231 88.8213 380.996 88.672C380.762 88.5227 380.458 88.448 380.084 88.448C379.551 88.448 379.13 88.5707 378.82 88.816C378.511 89.0507 378.292 89.3973 378.164 89.856C378.036 90.3147 377.972 90.88 377.972 91.552V96H376.58V87.424H377.7L377.908 88.592H377.988C378.159 88.2933 378.367 88.048 378.612 87.856C378.858 87.6533 379.13 87.504 379.428 87.408C379.727 87.312 380.036 87.264 380.356 87.264C380.975 87.264 381.492 87.3813 381.908 87.616C382.324 87.8507 382.628 88.2133 382.82 88.704H382.916C383.183 88.2133 383.546 87.8507 384.004 87.616C384.474 87.3813 384.97 87.264 385.492 87.264ZM396.626 93.632C396.626 94.1867 396.492 94.6507 396.226 95.024C395.97 95.3973 395.602 95.68 395.122 95.872C394.642 96.064 394.066 96.16 393.394 96.16C392.828 96.16 392.338 96.112 391.922 96.016C391.516 95.92 391.159 95.7867 390.85 95.616V94.336C391.18 94.5067 391.575 94.6667 392.034 94.816C392.492 94.9547 392.956 95.024 393.426 95.024C394.076 95.024 394.546 94.912 394.834 94.688C395.132 94.4533 395.282 94.144 395.282 93.76C395.282 93.5467 395.223 93.3547 395.106 93.184C394.999 93.0133 394.802 92.8427 394.514 92.672C394.236 92.5013 393.831 92.3093 393.298 92.096C392.786 91.8827 392.343 91.6693 391.97 91.456C391.607 91.2427 391.324 90.9867 391.122 90.688C390.93 90.3893 390.834 90.0053 390.834 89.536C390.834 88.8107 391.111 88.2507 391.666 87.856C392.231 87.4613 392.967 87.264 393.874 87.264C394.364 87.264 394.823 87.3173 395.25 87.424C395.676 87.52 396.082 87.6587 396.466 87.84L396.002 88.96C395.778 88.8533 395.543 88.7627 395.298 88.688C395.052 88.6027 394.802 88.5387 394.546 88.496C394.3 88.4427 394.05 88.416 393.794 88.416C393.271 88.416 392.871 88.512 392.594 88.704C392.316 88.8853 392.178 89.136 392.178 89.456C392.178 89.6907 392.242 89.8933 392.37 90.064C392.498 90.2347 392.706 90.4 392.994 90.56C393.292 90.7093 393.698 90.8853 394.21 91.088C394.722 91.2907 395.159 91.4987 395.522 91.712C395.884 91.9253 396.156 92.1867 396.338 92.496C396.53 92.7947 396.626 93.1733 396.626 93.632ZM405.158 87.424V96H403.766V87.424H405.158ZM404.47 84.208C404.684 84.208 404.87 84.2827 405.03 84.432C405.19 84.5707 405.27 84.7947 405.27 85.104C405.27 85.4027 405.19 85.6267 405.03 85.776C404.87 85.9253 404.684 86 404.47 86C404.246 86 404.054 85.9253 403.894 85.776C403.734 85.6267 403.654 85.4027 403.654 85.104C403.654 84.7947 403.734 84.5707 403.894 84.432C404.054 84.2827 404.246 84.208 404.47 84.208ZM412.264 87.264C413.224 87.264 413.949 87.5147 414.44 88.016C414.941 88.5067 415.192 89.3067 415.192 90.416V96H413.8V90.512C413.8 89.8187 413.656 89.3013 413.368 88.96C413.08 88.6187 412.637 88.448 412.04 88.448C411.165 88.448 410.557 88.7147 410.216 89.248C409.885 89.7813 409.72 90.5493 409.72 91.552V96H408.328V87.424H409.448L409.656 88.592H409.736C409.906 88.2933 410.125 88.048 410.392 87.856C410.658 87.6533 410.952 87.504 411.272 87.408C411.592 87.312 411.922 87.264 412.264 87.264ZM421.08 95.008C421.282 95.008 421.49 94.992 421.704 94.96C421.917 94.9173 422.093 94.8747 422.232 94.832V95.904C422.082 95.9787 421.869 96.0373 421.592 96.08C421.325 96.1333 421.069 96.16 420.824 96.16C420.397 96.16 420.002 96.0853 419.64 95.936C419.277 95.776 418.984 95.504 418.76 95.12C418.546 94.736 418.44 94.1973 418.44 93.504V88.512H417.304V87.84L418.472 87.28L419 85.456H419.832V87.424H422.168V88.512H419.832V93.472C419.832 93.9947 419.949 94.384 420.184 94.64C420.418 94.8853 420.717 95.008 421.08 95.008ZM431.523 91.696C431.523 92.4107 431.432 93.0453 431.251 93.6C431.08 94.144 430.83 94.608 430.499 94.992C430.168 95.376 429.768 95.6693 429.299 95.872C428.83 96.064 428.307 96.16 427.731 96.16C427.198 96.16 426.702 96.064 426.243 95.872C425.795 95.6693 425.4 95.376 425.059 94.992C424.728 94.608 424.472 94.144 424.291 93.6C424.11 93.0453 424.019 92.4107 424.019 91.696C424.019 90.7467 424.168 89.9467 424.467 89.296C424.776 88.6347 425.214 88.1333 425.779 87.792C426.344 87.44 427.011 87.264 427.779 87.264C428.515 87.264 429.16 87.44 429.715 87.792C430.28 88.1333 430.723 88.6347 431.043 89.296C431.363 89.9467 431.523 90.7467 431.523 91.696ZM425.459 91.696C425.459 92.368 425.539 92.9547 425.699 93.456C425.859 93.9467 426.11 94.3253 426.451 94.592C426.792 94.8587 427.23 94.992 427.763 94.992C428.296 94.992 428.734 94.8587 429.075 94.592C429.416 94.3253 429.667 93.9467 429.827 93.456C429.998 92.9547 430.083 92.368 430.083 91.696C430.083 91.0133 429.998 90.432 429.827 89.952C429.667 89.472 429.416 89.104 429.075 88.848C428.734 88.5813 428.291 88.448 427.747 88.448C426.947 88.448 426.366 88.736 426.003 89.312C425.64 89.888 425.459 90.6827 425.459 91.696ZM442.602 87.264C442.752 87.264 442.912 87.2747 443.082 87.296C443.253 87.3067 443.402 87.328 443.53 87.36L443.37 88.656C443.242 88.624 443.098 88.5973 442.938 88.576C442.789 88.5547 442.645 88.544 442.506 88.544C442.197 88.544 441.904 88.6133 441.626 88.752C441.349 88.8907 441.098 89.088 440.874 89.344C440.661 89.5893 440.49 89.888 440.362 90.24C440.234 90.592 440.17 90.9867 440.17 91.424V96H438.778V87.424H439.914L440.074 88.992H440.138C440.309 88.672 440.512 88.384 440.746 88.128C440.992 87.8613 441.269 87.6533 441.578 87.504C441.888 87.344 442.229 87.264 442.602 87.264ZM448.507 87.264C449.201 87.264 449.798 87.424 450.299 87.744C450.801 88.064 451.185 88.5173 451.451 89.104C451.729 89.68 451.867 90.3573 451.867 91.136V91.984H446.363C446.385 92.9547 446.614 93.696 447.051 94.208C447.489 94.7093 448.102 94.96 448.891 94.96C449.403 94.96 449.857 94.912 450.251 94.816C450.657 94.7093 451.073 94.56 451.499 94.368V95.6C451.083 95.792 450.673 95.9307 450.267 96.016C449.873 96.112 449.393 96.16 448.827 96.16C448.059 96.16 447.382 95.9947 446.795 95.664C446.209 95.3333 445.75 94.8427 445.419 94.192C445.089 93.5307 444.923 92.7253 444.923 91.776C444.923 90.8373 445.073 90.032 445.371 89.36C445.67 88.688 446.086 88.1707 446.619 87.808C447.163 87.4453 447.793 87.264 448.507 87.264ZM448.507 88.416C447.889 88.416 447.398 88.6347 447.035 89.072C446.673 89.4987 446.459 90.096 446.395 90.864H450.427C450.427 90.3733 450.358 89.9467 450.219 89.584C450.081 89.2213 449.867 88.9387 449.579 88.736C449.302 88.5227 448.945 88.416 448.507 88.416ZM457.615 87.28C458.596 87.28 459.327 87.5093 459.807 87.968C460.298 88.4267 460.543 89.1573 460.543 90.16V96H459.535L459.263 94.784H459.199C458.964 95.0933 458.724 95.3547 458.479 95.568C458.244 95.7707 457.967 95.92 457.647 96.016C457.338 96.112 456.954 96.16 456.495 96.16C456.015 96.16 455.583 96.0693 455.199 95.888C454.815 95.7067 454.511 95.4293 454.287 95.056C454.063 94.672 453.951 94.192 453.951 93.616C453.951 92.7627 454.266 92.1067 454.895 91.648C455.524 91.1787 456.495 90.9227 457.807 90.88L459.167 90.832V90.32C459.167 89.6053 459.023 89.1093 458.735 88.832C458.458 88.5547 458.058 88.416 457.535 88.416C457.119 88.416 456.719 88.4853 456.335 88.624C455.962 88.752 455.604 88.9013 455.263 89.072L454.831 88.016C455.194 87.8133 455.615 87.6427 456.095 87.504C456.575 87.3547 457.082 87.28 457.615 87.28ZM457.999 91.856C457.018 91.8987 456.335 92.0693 455.951 92.368C455.578 92.6667 455.391 93.088 455.391 93.632C455.391 94.112 455.524 94.464 455.791 94.688C456.058 94.912 456.404 95.024 456.831 95.024C457.492 95.024 458.047 94.8267 458.495 94.432C458.943 94.0267 459.167 93.408 459.167 92.576V91.808L457.999 91.856ZM465.059 96H463.667V83.84H465.059V96ZM469.637 87.424V96H468.245V87.424H469.637ZM468.949 84.208C469.162 84.208 469.349 84.2827 469.509 84.432C469.669 84.5707 469.749 84.7947 469.749 85.104C469.749 85.4027 469.669 85.6267 469.509 85.776C469.349 85.9253 469.162 86 468.949 86C468.725 86 468.533 85.9253 468.373 85.776C468.213 85.6267 468.133 85.4027 468.133 85.104C468.133 84.7947 468.213 84.5707 468.373 84.432C468.533 84.2827 468.725 84.208 468.949 84.208ZM475.574 95.008C475.777 95.008 475.985 94.992 476.198 94.96C476.412 94.9173 476.588 94.8747 476.726 94.832V95.904C476.577 95.9787 476.364 96.0373 476.086 96.08C475.82 96.1333 475.564 96.16 475.318 96.16C474.892 96.16 474.497 96.0853 474.134 95.936C473.772 95.776 473.478 95.504 473.254 95.12C473.041 94.736 472.934 94.1973 472.934 93.504V88.512H471.798V87.84L472.966 87.28L473.494 85.456H474.326V87.424H476.662V88.512H474.326V93.472C474.326 93.9947 474.444 94.384 474.678 94.64C474.913 94.8853 475.212 95.008 475.574 95.008ZM477.714 87.424H479.218L480.93 92.304C481.037 92.592 481.133 92.8693 481.218 93.136C481.303 93.4027 481.378 93.664 481.442 93.92C481.506 94.1653 481.554 94.4053 481.586 94.64H481.634C481.698 94.3733 481.789 94.0267 481.906 93.6C482.034 93.1627 482.167 92.7253 482.306 92.288L483.922 87.424H485.442L481.97 97.184C481.778 97.7173 481.549 98.1813 481.282 98.576C481.026 98.9813 480.711 99.2907 480.338 99.504C479.965 99.728 479.517 99.84 478.994 99.84C478.759 99.84 478.546 99.824 478.354 99.792C478.173 99.7707 478.018 99.744 477.89 99.712V98.592C477.997 98.6133 478.13 98.6347 478.29 98.656C478.45 98.6773 478.615 98.688 478.786 98.688C479.095 98.688 479.362 98.624 479.586 98.496C479.81 98.3787 480.002 98.2027 480.162 97.968C480.322 97.744 480.455 97.4773 480.562 97.168L480.962 96.032L477.714 87.424Z" fill="#102C57"/>
</svg>
