<svg width="882" height="142" viewBox="0 0 882 142" fill="none" xmlns="http://www.w3.org/2000/svg">
<g clip-path="url(#clip0_41_12)">
<path d="M94.0692 48.1944C91.0721 50.4706 88.0823 52.7842 85.0555 55.038C83.1489 56.456 81.0271 57.8292 81.91 60.6651C82.7854 63.4637 85.3374 64.1578 87.8301 64.6653C92.7858 65.6877 96.1836 62.6428 99.7149 59.9412C104.285 56.441 105.36 56.3963 109.938 59.8292C115.88 64.2921 121.786 68.8147 127.661 73.3821C130.814 75.83 130.755 78.0987 127.631 79.5764C126.259 80.2257 125.406 79.1062 124.501 78.457C121.504 76.3076 118.573 74.0612 115.813 71.994C114.493 72.0164 114.011 72.7104 113.551 73.5911C115.005 76.1733 117.601 77.4569 119.931 79.0167C120.999 79.7257 122.119 80.3451 122.854 81.4272C123.796 82.8154 123.544 84.2333 122.446 85.3229C121.207 86.5469 119.642 86.4424 118.299 85.4647C115.339 83.3228 112.445 81.0839 109.537 78.8674C108.625 78.1734 107.631 77.6286 106.785 78.7331C105.924 79.86 106.889 80.5765 107.705 81.1959C109.411 82.5019 111.125 83.793 112.853 85.0692C114.537 86.3155 114.938 87.9275 113.758 89.6142C112.542 91.3456 110.843 91.3381 109.196 90.1366C106.651 88.2708 104.144 86.3603 101.629 84.4647C100.813 83.8527 99.9078 83.5169 99.2252 84.4572C98.5724 85.3453 98.9878 86.1961 99.8558 86.8081C99.8929 86.8379 99.9374 86.8528 99.9671 86.8902C101.199 88.2708 104.188 88.7111 103.031 91.3754C101.896 93.98 99.2697 92.7188 97.4002 92.5247C86.9028 91.3978 78.3638 86.5618 71.8873 78.151C71.1899 77.2479 70.4258 76.8972 69.3204 76.9644C59.4387 77.5987 49.5496 78.1435 39.6753 78.8525C33.6809 79.2854 30.4538 74.8448 25.8394 71.5089C31.5814 70.5088 36.7078 69.6058 41.8415 68.7102C41.8415 68.6281 41.8267 68.5386 41.8267 68.4565C37.3903 68.6729 32.8797 68.4565 28.5324 69.1953C21.7517 70.3596 17.1521 67.2475 13.0792 62.5085C12.048 61.3144 10.9797 60.1502 9.62948 58.6352H49.8537C49.8537 58.5232 49.8537 58.4187 49.8611 58.3068C42.754 57.8366 35.6543 57.3665 28.5472 56.9037C23.8586 56.5978 19.1625 56.344 14.4739 56.0007C11.959 55.8141 10.1933 54.1648 8.67989 52.3961C5.50468 48.7019 2.67074 44.7465 0 40C4.01352 40.7687 7.55966 41.4404 11.0984 42.1344C27.9389 45.4182 44.7793 48.7168 61.6272 51.9931C64.6689 52.5827 67.7106 53.3663 70.7819 53.5678C76.116 53.9111 80.6785 50.9557 85.5896 49.5004C87.8227 48.8362 89.9889 47.963 92.1849 47.1869C92.9638 46.9108 93.6315 46.9182 94.0692 48.2019V48.1944Z" fill="white"/>
<path d="M203.993 40C200.528 45.6217 197.611 51.3244 192.073 54.7533C188.8 56.7769 184.773 55.8865 181.086 56.1661C171.868 56.8725 162.636 57.3435 153.411 58.1308H194.316C193.02 59.654 191.991 60.8975 190.925 62.1116C187.194 66.3647 183.04 69.411 176.792 68.6016C172.039 67.9909 167.197 68.0865 162.332 68.1748C167.426 69.0358 172.52 69.8967 177.651 70.765C175.822 74.7164 167.996 78.3293 162.695 77.9761C153.293 77.3506 143.875 76.8135 134.465 76.2984C133.11 76.2248 132.348 75.8054 132.066 74.4515C131.644 72.4132 130.016 71.3095 128.49 70.1689C122.049 65.364 115.601 60.5664 109.145 55.7761C106.08 53.5024 102.356 53.4951 99.2536 55.7173C97.0769 57.2772 94.9817 58.9696 92.7236 60.3972C90.1545 62.016 87.4522 61.8835 84.8535 60.2868C84.0169 59.7717 83.6171 58.9623 84.4908 58.3074C89.4956 54.54 94.4634 50.721 99.6312 47.1817C103.318 44.6578 107.042 46.5121 110.648 47.8439C115.001 49.4554 119.317 51.1772 123.7 52.7225C127.713 54.1353 131.718 53.0757 135.702 52.3546C158.001 48.2781 180.301 44.2089 202.601 40.1398C202.934 40.0809 203.282 40.0736 204 40.0074L203.993 40Z" fill="white"/>
<path d="M151.074 35.4708V44.6626H165.956C165.971 44.7868 165.985 44.9109 166 45.035C158.004 46.6019 150.016 48.1687 141.777 49.7822V41.6297C116.438 30.7856 91.2669 30.8244 65.839 41.5599V51C56.704 48.991 47.8557 47.0518 39 45.1048C39.0147 44.9884 39.022 44.8721 39.0367 44.7557H56.2851V35.6725C74.1949 20.2053 128.255 20.0812 151.067 35.4708H151.074Z" fill="white"/>
<path d="M61.0149 80.566C67.3579 78.9834 70.5889 80.566 75.0008 87.2682C81.7375 97.5074 90.5242 105.53 101.383 111.488C104.503 113.202 106.374 111.101 108.283 109.935C112.725 107.214 117.107 104.275 121.036 100.891C126.28 96.3624 130.417 90.8271 133.782 84.7886C134.569 83.3884 135.304 81.9589 136.136 80.4055C139.271 80.4639 142.442 80.0482 146 80.7702C144.767 83.3154 143.712 85.7002 142.494 87.9975C136.211 99.8338 127.298 109.322 115.77 116.396C112.138 118.628 108.328 120.589 104.607 122.683C103.968 123.04 103.381 123.135 102.676 122.763C90.2642 116.228 78.67 108.717 70.3215 97.1938C66.5706 92.0231 63.4362 86.5535 61 80.5733L61.0149 80.566Z" fill="white"/>
<path d="M245.84 77.728C242.963 77.728 240.293 77.2773 237.832 76.376C235.371 75.44 233.239 74.1227 231.436 72.424C229.668 70.7253 228.281 68.732 227.276 66.444C226.271 64.1213 225.768 61.5733 225.768 58.8C225.768 56.0267 226.271 53.496 227.276 51.208C228.281 48.8853 229.685 46.8747 231.488 45.176C233.291 43.4773 235.423 42.1773 237.884 41.276C240.38 40.34 243.101 39.872 246.048 39.872C249.48 39.872 252.548 40.444 255.252 41.588C257.956 42.732 260.192 44.3787 261.96 46.528L255.408 52.456C254.16 51.104 252.808 50.0987 251.352 49.44C249.931 48.7467 248.336 48.4 246.568 48.4C245.008 48.4 243.587 48.6427 242.304 49.128C241.021 49.6133 239.929 50.324 239.028 51.26C238.127 52.1613 237.416 53.2533 236.896 54.536C236.411 55.784 236.168 57.2053 236.168 58.8C236.168 60.3253 236.411 61.7293 236.896 63.012C237.416 64.2947 238.127 65.404 239.028 66.34C239.929 67.2413 241.004 67.952 242.252 68.472C243.535 68.9573 244.939 69.2 246.464 69.2C247.989 69.2 249.48 68.9573 250.936 68.472C252.392 67.952 253.865 67.0853 255.356 65.872L261.128 73.1C259.048 74.5907 256.639 75.7347 253.9 76.532C251.161 77.3293 248.475 77.728 245.84 77.728ZM252.028 71.748V58.02H261.128V73.1L252.028 71.748ZM267.656 77V40.6H277.952V68.836H295.32V77H267.656ZM295.381 77L311.449 40.6H321.589L337.709 77H326.997L314.413 45.644H318.469L305.885 77H295.381ZM304.169 69.928L306.821 62.336H324.605L327.257 69.928H304.169ZM356.663 77.728C351.289 77.728 347.095 76.2547 344.079 73.308C341.063 70.3613 339.555 66.184 339.555 60.776V40.6H349.851V60.464C349.851 63.584 350.457 65.82 351.671 67.172C352.919 68.524 354.617 69.2 356.767 69.2C358.916 69.2 360.597 68.524 361.811 67.172C363.024 65.82 363.631 63.584 363.631 60.464V40.6H373.771V60.776C373.771 66.184 372.263 70.3613 369.247 73.308C366.231 76.2547 362.036 77.728 356.663 77.728ZM380.745 77V40.6H399.361C404.145 40.6 407.716 41.484 410.073 43.252C412.431 44.9853 413.609 47.2733 413.609 50.116C413.609 51.988 413.107 53.6347 412.101 55.056C411.131 56.4427 409.744 57.552 407.941 58.384C406.173 59.1813 404.059 59.58 401.597 59.58L402.637 57.084C405.203 57.084 407.439 57.4827 409.345 58.28C411.252 59.0427 412.725 60.1693 413.765 61.66C414.84 63.116 415.377 64.9013 415.377 67.016C415.377 70.1707 414.095 72.632 411.529 74.4C408.999 76.1333 405.289 77 400.401 77H380.745ZM390.937 69.564H399.569C401.337 69.564 402.672 69.2693 403.573 68.68C404.509 68.056 404.977 67.12 404.977 65.872C404.977 64.624 404.509 63.7053 403.573 63.116C402.672 62.492 401.337 62.18 399.569 62.18H390.209V55.056H398.009C399.743 55.056 401.043 54.7613 401.909 54.172C402.776 53.5827 403.209 52.6987 403.209 51.52C403.209 50.3413 402.776 49.4747 401.909 48.92C401.043 48.3307 399.743 48.036 398.009 48.036H390.937V69.564ZM430.174 54.692H447.074V62.388H430.174V54.692ZM430.902 69.044H449.934V77H420.71V40.6H449.258V48.556H430.902V69.044Z" fill="#977601"/>
<path d="M488.929 77.728C486.051 77.728 483.382 77.2773 480.921 76.376C478.494 75.44 476.379 74.1227 474.577 72.424C472.809 70.7253 471.422 68.732 470.417 66.444C469.411 64.1213 468.909 61.5733 468.909 58.8C468.909 56.0267 469.411 53.496 470.417 51.208C471.422 48.8853 472.809 46.8747 474.577 45.176C476.379 43.4773 478.494 42.1773 480.921 41.276C483.382 40.34 486.051 39.872 488.929 39.872C492.291 39.872 495.29 40.4613 497.925 41.64C500.594 42.8187 502.813 44.5173 504.581 46.736L498.029 52.664C496.85 51.2773 495.55 50.22 494.129 49.492C492.742 48.764 491.182 48.4 489.449 48.4C487.958 48.4 486.589 48.6427 485.341 49.128C484.093 49.6133 483.018 50.324 482.117 51.26C481.25 52.1613 480.557 53.2533 480.037 54.536C479.551 55.8187 479.309 57.24 479.309 58.8C479.309 60.36 479.551 61.7813 480.037 63.064C480.557 64.3467 481.25 65.456 482.117 66.392C483.018 67.2933 484.093 67.9867 485.341 68.472C486.589 68.9573 487.958 69.2 489.449 69.2C491.182 69.2 492.742 68.836 494.129 68.108C495.55 67.38 496.85 66.3227 498.029 64.936L504.581 70.864C502.813 73.048 500.594 74.7467 497.925 75.96C495.29 77.1387 492.291 77.728 488.929 77.728ZM526.766 77.728C523.854 77.728 521.167 77.26 518.706 76.324C516.244 75.388 514.095 74.0707 512.258 72.372C510.455 70.6387 509.051 68.628 508.046 66.34C507.04 64.052 506.538 61.5387 506.538 58.8C506.538 56.0613 507.04 53.548 508.046 51.26C509.051 48.972 510.455 46.9787 512.258 45.28C514.095 43.5467 516.244 42.212 518.706 41.276C521.167 40.34 523.854 39.872 526.766 39.872C529.712 39.872 532.399 40.34 534.826 41.276C537.287 42.212 539.419 43.5467 541.222 45.28C543.024 46.9787 544.428 48.972 545.434 51.26C546.474 53.548 546.994 56.0613 546.994 58.8C546.994 61.5387 546.474 64.0693 545.434 66.392C544.428 68.68 543.024 70.6733 541.222 72.372C539.419 74.0707 537.287 75.388 534.826 76.324C532.399 77.26 529.712 77.728 526.766 77.728ZM526.766 69.2C528.152 69.2 529.435 68.9573 530.614 68.472C531.827 67.9867 532.867 67.2933 533.734 66.392C534.635 65.456 535.328 64.3467 535.814 63.064C536.334 61.7813 536.594 60.36 536.594 58.8C536.594 57.2053 536.334 55.784 535.814 54.536C535.328 53.2533 534.635 52.1613 533.734 51.26C532.867 50.324 531.827 49.6133 530.614 49.128C529.435 48.6427 528.152 48.4 526.766 48.4C525.379 48.4 524.079 48.6427 522.866 49.128C521.687 49.6133 520.647 50.324 519.746 51.26C518.879 52.1613 518.186 53.2533 517.666 54.536C517.18 55.784 516.938 57.2053 516.938 58.8C516.938 60.36 517.18 61.7813 517.666 63.064C518.186 64.3467 518.879 65.456 519.746 66.392C520.647 67.2933 521.687 67.9867 522.866 68.472C524.079 68.9573 525.379 69.2 526.766 69.2ZM552.386 77V40.6H560.862L580.934 64.832H576.93V40.6H587.018V77H578.542L558.47 52.768H562.474V77H552.386ZM607.073 77.728C604.091 77.728 601.214 77.364 598.441 76.636C595.702 75.8733 593.466 74.9027 591.733 73.724L595.113 66.132C596.742 67.172 598.614 68.0387 600.729 68.732C602.878 69.3907 605.01 69.72 607.125 69.72C608.546 69.72 609.69 69.5987 610.557 69.356C611.423 69.0787 612.047 68.732 612.429 68.316C612.845 67.8653 613.053 67.3453 613.053 66.756C613.053 65.924 612.671 65.2653 611.909 64.78C611.146 64.2947 610.158 63.896 608.945 63.584C607.731 63.272 606.379 62.96 604.889 62.648C603.433 62.336 601.959 61.9373 600.469 61.452C599.013 60.9667 597.678 60.3427 596.465 59.58C595.251 58.7827 594.263 57.76 593.501 56.512C592.738 55.2293 592.357 53.6173 592.357 51.676C592.357 49.492 592.946 47.516 594.125 45.748C595.338 43.98 597.141 42.5587 599.533 41.484C601.925 40.4093 604.906 39.872 608.477 39.872C610.869 39.872 613.209 40.1493 615.497 40.704C617.819 41.224 619.882 42.004 621.685 43.044L618.513 50.688C616.779 49.752 615.063 49.0587 613.365 48.608C611.666 48.1227 610.019 47.88 608.425 47.88C607.003 47.88 605.859 48.036 604.993 48.348C604.126 48.6253 603.502 49.0067 603.121 49.492C602.739 49.9773 602.549 50.532 602.549 51.156C602.549 51.9533 602.913 52.5947 603.641 53.08C604.403 53.5307 605.391 53.912 606.605 54.224C607.853 54.5013 609.205 54.796 610.661 55.108C612.151 55.42 613.625 55.8187 615.081 56.304C616.571 56.7547 617.923 57.3787 619.137 58.176C620.35 58.9387 621.321 59.9613 622.049 61.244C622.811 62.492 623.193 64.0693 623.193 65.976C623.193 68.0907 622.586 70.0493 621.373 71.852C620.194 73.62 618.409 75.0413 616.017 76.116C613.659 77.1907 610.678 77.728 607.073 77.728ZM644.745 77.728C639.371 77.728 635.177 76.2547 632.161 73.308C629.145 70.3613 627.637 66.184 627.637 60.776V40.6H637.933V60.464C637.933 63.584 638.539 65.82 639.753 67.172C641.001 68.524 642.699 69.2 644.849 69.2C646.998 69.2 648.679 68.524 649.893 67.172C651.106 65.82 651.713 63.584 651.713 60.464V40.6H661.853V60.776C661.853 66.184 660.345 70.3613 657.329 73.308C654.313 76.2547 650.118 77.728 644.745 77.728ZM668.828 77V40.6H679.124V68.836H696.492V77H668.828ZM704.911 77V48.764H693.731V40.6H726.335V48.764H715.207V77H704.911ZM723.975 77L740.043 40.6H750.183L766.303 77H755.591L743.007 45.644H747.063L734.479 77H723.975ZM732.763 69.928L735.415 62.336H753.199L755.851 69.928H732.763ZM769.222 77V40.6H777.698L797.77 64.832H793.766V40.6H803.854V77H795.378L775.306 52.768H779.31V77H769.222ZM829.265 77.728C826.387 77.728 823.718 77.2773 821.257 76.376C818.83 75.44 816.715 74.1227 814.913 72.424C813.145 70.7253 811.758 68.732 810.753 66.444C809.747 64.1213 809.245 61.5733 809.245 58.8C809.245 56.0267 809.747 53.496 810.753 51.208C811.758 48.8853 813.145 46.8747 814.913 45.176C816.715 43.4773 818.83 42.1773 821.257 41.276C823.718 40.34 826.387 39.872 829.265 39.872C832.627 39.872 835.626 40.4613 838.261 41.64C840.93 42.8187 843.149 44.5173 844.917 46.736L838.365 52.664C837.186 51.2773 835.886 50.22 834.465 49.492C833.078 48.764 831.518 48.4 829.785 48.4C828.294 48.4 826.925 48.6427 825.677 49.128C824.429 49.6133 823.354 50.324 822.453 51.26C821.586 52.1613 820.893 53.2533 820.373 54.536C819.887 55.8187 819.645 57.24 819.645 58.8C819.645 60.36 819.887 61.7813 820.373 63.064C820.893 64.3467 821.586 65.456 822.453 66.392C823.354 67.2933 824.429 67.9867 825.677 68.472C826.925 68.9573 828.294 69.2 829.785 69.2C831.518 69.2 833.078 68.836 834.465 68.108C835.886 67.38 837.186 66.3227 838.365 64.936L844.917 70.864C843.149 73.048 840.93 74.7467 838.261 75.96C835.626 77.1387 832.627 77.728 829.265 77.728ZM858.559 77V61.608L860.951 67.796L844.675 40.6H855.543L867.295 60.308H861.003L872.807 40.6H882.791L866.567 67.796L868.855 61.608V77H858.559Z" fill="white"/>
<path d="M229.526 100H227.924V88.57H224.18V87.148H233.234V88.57H229.526V100ZM242.388 90.352V100H241.128L240.894 98.722H240.822C240.63 99.058 240.378 99.334 240.066 99.55C239.766 99.766 239.436 99.922 239.076 100.018C238.716 100.126 238.338 100.18 237.942 100.18C237.222 100.18 236.616 100.06 236.124 99.82C235.632 99.568 235.26 99.184 235.008 98.668C234.768 98.152 234.648 97.486 234.648 96.67V90.352H236.232V96.562C236.232 97.33 236.394 97.906 236.718 98.29C237.042 98.674 237.54 98.866 238.212 98.866C238.872 98.866 239.388 98.734 239.76 98.47C240.144 98.194 240.414 97.798 240.57 97.282C240.738 96.754 240.822 96.118 240.822 95.374V90.352H242.388ZM250.254 90.172C250.422 90.172 250.602 90.184 250.794 90.208C250.986 90.22 251.154 90.244 251.298 90.28L251.118 91.738C250.974 91.702 250.812 91.672 250.632 91.648C250.464 91.624 250.302 91.612 250.146 91.612C249.798 91.612 249.468 91.69 249.156 91.846C248.844 92.002 248.562 92.224 248.31 92.512C248.07 92.788 247.878 93.124 247.734 93.52C247.59 93.916 247.518 94.36 247.518 94.852V100H245.952V90.352H247.23L247.41 92.116H247.482C247.674 91.756 247.902 91.432 248.166 91.144C248.442 90.844 248.754 90.61 249.102 90.442C249.45 90.262 249.834 90.172 250.254 90.172ZM258.131 90.172C259.211 90.172 260.027 90.454 260.579 91.018C261.143 91.57 261.425 92.47 261.425 93.718V100H259.859V93.826C259.859 93.046 259.697 92.464 259.373 92.08C259.049 91.696 258.551 91.504 257.879 91.504C256.895 91.504 256.211 91.804 255.827 92.404C255.455 93.004 255.269 93.868 255.269 94.996V100H253.703V90.352H254.963L255.197 91.666H255.287C255.479 91.33 255.725 91.054 256.025 90.838C256.325 90.61 256.655 90.442 257.015 90.334C257.375 90.226 257.747 90.172 258.131 90.172ZM266.519 90.352V100H264.953V90.352H266.519ZM265.745 86.734C265.985 86.734 266.195 86.818 266.375 86.986C266.555 87.142 266.645 87.394 266.645 87.742C266.645 88.078 266.555 88.33 266.375 88.498C266.195 88.666 265.985 88.75 265.745 88.75C265.493 88.75 265.277 88.666 265.097 88.498C264.917 88.33 264.827 88.078 264.827 87.742C264.827 87.394 264.917 87.142 265.097 86.986C265.277 86.818 265.493 86.734 265.745 86.734ZM274.512 90.172C275.592 90.172 276.408 90.454 276.96 91.018C277.524 91.57 277.806 92.47 277.806 93.718V100H276.24V93.826C276.24 93.046 276.078 92.464 275.754 92.08C275.43 91.696 274.932 91.504 274.26 91.504C273.276 91.504 272.592 91.804 272.208 92.404C271.836 93.004 271.65 93.868 271.65 94.996V100H270.084V90.352H271.344L271.578 91.666H271.668C271.86 91.33 272.106 91.054 272.406 90.838C272.706 90.61 273.036 90.442 273.396 90.334C273.756 90.226 274.128 90.172 274.512 90.172ZM284.52 90.172C285.12 90.172 285.654 90.292 286.122 90.532C286.602 90.772 287.01 91.138 287.346 91.63H287.436L287.634 90.352H288.894V100.162C288.894 101.074 288.744 101.836 288.444 102.448C288.156 103.072 287.706 103.54 287.094 103.852C286.494 104.164 285.726 104.32 284.79 104.32C284.13 104.32 283.53 104.266 282.99 104.158C282.45 104.062 281.958 103.912 281.514 103.708V102.25C281.814 102.406 282.138 102.538 282.486 102.646C282.846 102.766 283.224 102.856 283.62 102.916C284.028 102.976 284.448 103.006 284.88 103.006C285.648 103.006 286.248 102.76 286.68 102.268C287.124 101.788 287.346 101.128 287.346 100.288V99.91C287.346 99.766 287.352 99.562 287.364 99.298C287.376 99.022 287.388 98.83 287.4 98.722H287.328C287.016 99.214 286.626 99.58 286.158 99.82C285.69 100.06 285.15 100.18 284.538 100.18C283.374 100.18 282.462 99.742 281.802 98.866C281.142 97.99 280.812 96.766 280.812 95.194C280.812 94.162 280.956 93.274 281.244 92.53C281.544 91.774 281.97 91.192 282.522 90.784C283.086 90.376 283.752 90.172 284.52 90.172ZM284.772 91.504C284.28 91.504 283.854 91.648 283.494 91.936C283.146 92.224 282.882 92.644 282.702 93.196C282.522 93.748 282.432 94.42 282.432 95.212C282.432 96.4 282.63 97.312 283.026 97.948C283.434 98.572 284.028 98.884 284.808 98.884C285.252 98.884 285.636 98.824 285.96 98.704C286.284 98.572 286.548 98.374 286.752 98.11C286.956 97.834 287.106 97.486 287.202 97.066C287.31 96.646 287.364 96.148 287.364 95.572V95.194C287.364 94.318 287.268 93.61 287.076 93.07C286.896 92.53 286.614 92.134 286.23 91.882C285.858 91.63 285.372 91.504 284.772 91.504ZM300.779 90.172C301.379 90.172 301.913 90.292 302.381 90.532C302.861 90.772 303.269 91.138 303.605 91.63H303.695L303.893 90.352H305.153V100.162C305.153 101.074 305.003 101.836 304.703 102.448C304.415 103.072 303.965 103.54 303.353 103.852C302.753 104.164 301.985 104.32 301.049 104.32C300.389 104.32 299.789 104.266 299.249 104.158C298.709 104.062 298.217 103.912 297.773 103.708V102.25C298.073 102.406 298.397 102.538 298.745 102.646C299.105 102.766 299.483 102.856 299.879 102.916C300.287 102.976 300.707 103.006 301.139 103.006C301.907 103.006 302.507 102.76 302.939 102.268C303.383 101.788 303.605 101.128 303.605 100.288V99.91C303.605 99.766 303.611 99.562 303.623 99.298C303.635 99.022 303.647 98.83 303.659 98.722H303.587C303.275 99.214 302.885 99.58 302.417 99.82C301.949 100.06 301.409 100.18 300.797 100.18C299.633 100.18 298.721 99.742 298.061 98.866C297.401 97.99 297.071 96.766 297.071 95.194C297.071 94.162 297.215 93.274 297.503 92.53C297.803 91.774 298.229 91.192 298.781 90.784C299.345 90.376 300.011 90.172 300.779 90.172ZM301.031 91.504C300.539 91.504 300.113 91.648 299.753 91.936C299.405 92.224 299.141 92.644 298.961 93.196C298.781 93.748 298.691 94.42 298.691 95.212C298.691 96.4 298.889 97.312 299.285 97.948C299.693 98.572 300.287 98.884 301.067 98.884C301.511 98.884 301.895 98.824 302.219 98.704C302.543 98.572 302.807 98.374 303.011 98.11C303.215 97.834 303.365 97.486 303.461 97.066C303.569 96.646 303.623 96.148 303.623 95.572V95.194C303.623 94.318 303.527 93.61 303.335 93.07C303.155 92.53 302.873 92.134 302.489 91.882C302.117 91.63 301.631 91.504 301.031 91.504ZM310.284 100H308.718V86.32H310.284V100ZM321.789 95.158C321.789 95.962 321.687 96.676 321.483 97.3C321.291 97.912 321.009 98.434 320.637 98.866C320.265 99.298 319.815 99.628 319.287 99.856C318.759 100.072 318.171 100.18 317.523 100.18C316.923 100.18 316.365 100.072 315.849 99.856C315.345 99.628 314.901 99.298 314.517 98.866C314.145 98.434 313.857 97.912 313.653 97.3C313.449 96.676 313.347 95.962 313.347 95.158C313.347 94.09 313.515 93.19 313.851 92.458C314.199 91.714 314.691 91.15 315.327 90.766C315.963 90.37 316.713 90.172 317.577 90.172C318.405 90.172 319.131 90.37 319.755 90.766C320.391 91.15 320.889 91.714 321.249 92.458C321.609 93.19 321.789 94.09 321.789 95.158ZM314.967 95.158C314.967 95.914 315.057 96.574 315.237 97.138C315.417 97.69 315.699 98.116 316.083 98.416C316.467 98.716 316.959 98.866 317.559 98.866C318.159 98.866 318.651 98.716 319.035 98.416C319.419 98.116 319.701 97.69 319.881 97.138C320.073 96.574 320.169 95.914 320.169 95.158C320.169 94.39 320.073 93.736 319.881 93.196C319.701 92.656 319.419 92.242 319.035 91.954C318.651 91.654 318.153 91.504 317.541 91.504C316.641 91.504 315.987 91.828 315.579 92.476C315.171 93.124 314.967 94.018 314.967 95.158ZM326.402 89.65C326.402 90.058 326.39 90.442 326.366 90.802C326.354 91.15 326.336 91.426 326.312 91.63H326.402C326.654 91.222 327.008 90.88 327.464 90.604C327.92 90.328 328.496 90.19 329.192 90.19C330.32 90.19 331.22 90.61 331.892 91.45C332.576 92.278 332.918 93.52 332.918 95.176C332.918 96.28 332.762 97.204 332.45 97.948C332.138 98.692 331.7 99.25 331.136 99.622C330.584 99.994 329.936 100.18 329.192 100.18C328.484 100.18 327.902 100.042 327.446 99.766C327.002 99.49 326.654 99.16 326.402 98.776H326.276L325.97 100H324.836V86.32H326.402V89.65ZM328.904 91.504C328.28 91.504 327.782 91.636 327.41 91.9C327.05 92.152 326.792 92.548 326.636 93.088C326.48 93.616 326.402 94.294 326.402 95.122V95.194C326.402 96.382 326.576 97.294 326.924 97.93C327.284 98.554 327.956 98.866 328.94 98.866C329.72 98.866 330.308 98.548 330.704 97.912C331.1 97.276 331.298 96.358 331.298 95.158C331.298 93.946 331.1 93.034 330.704 92.422C330.308 91.81 329.708 91.504 328.904 91.504ZM339.454 90.19C340.558 90.19 341.38 90.448 341.92 90.964C342.472 91.48 342.748 92.302 342.748 93.43V100H341.614L341.308 98.632H341.236C340.972 98.98 340.702 99.274 340.426 99.514C340.162 99.742 339.85 99.91 339.49 100.018C339.142 100.126 338.71 100.18 338.194 100.18C337.654 100.18 337.168 100.078 336.736 99.874C336.304 99.67 335.962 99.358 335.71 98.938C335.458 98.506 335.332 97.966 335.332 97.318C335.332 96.358 335.686 95.62 336.394 95.104C337.102 94.576 338.194 94.288 339.67 94.24L341.2 94.186V93.61C341.2 92.806 341.038 92.248 340.714 91.936C340.402 91.624 339.952 91.468 339.364 91.468C338.896 91.468 338.446 91.546 338.014 91.702C337.594 91.846 337.192 92.014 336.808 92.206L336.322 91.018C336.73 90.79 337.204 90.598 337.744 90.442C338.284 90.274 338.854 90.19 339.454 90.19ZM339.886 95.338C338.782 95.386 338.014 95.578 337.582 95.914C337.162 96.25 336.952 96.724 336.952 97.336C336.952 97.876 337.102 98.272 337.402 98.524C337.702 98.776 338.092 98.902 338.572 98.902C339.316 98.902 339.94 98.68 340.444 98.236C340.948 97.78 341.2 97.084 341.2 96.148V95.284L339.886 95.338ZM347.828 100H346.262V86.32H347.828V100ZM359.713 100.18C358.597 100.18 357.697 99.766 357.013 98.938C356.341 98.098 356.005 96.85 356.005 95.194C356.005 93.538 356.347 92.29 357.031 91.45C357.715 90.598 358.615 90.172 359.731 90.172C360.199 90.172 360.607 90.238 360.955 90.37C361.303 90.49 361.603 90.658 361.855 90.874C362.119 91.09 362.341 91.33 362.521 91.594H362.629C362.617 91.438 362.593 91.21 362.557 90.91C362.533 90.598 362.521 90.352 362.521 90.172V86.32H364.087V100H362.827L362.593 98.704H362.521C362.341 98.98 362.119 99.232 361.855 99.46C361.603 99.676 361.297 99.85 360.937 99.982C360.589 100.114 360.181 100.18 359.713 100.18ZM360.001 98.866C360.937 98.866 361.591 98.59 361.963 98.038C362.347 97.474 362.539 96.628 362.539 95.5V95.212C362.539 94.012 362.359 93.094 361.999 92.458C361.639 91.81 360.967 91.486 359.983 91.486C359.191 91.486 358.597 91.828 358.201 92.512C357.817 93.184 357.625 94.09 357.625 95.23C357.625 96.382 357.817 97.276 358.201 97.912C358.597 98.548 359.197 98.866 360.001 98.866ZM371.955 90.172C372.123 90.172 372.303 90.184 372.495 90.208C372.687 90.22 372.855 90.244 372.999 90.28L372.819 91.738C372.675 91.702 372.513 91.672 372.333 91.648C372.165 91.624 372.003 91.612 371.847 91.612C371.499 91.612 371.169 91.69 370.857 91.846C370.545 92.002 370.263 92.224 370.011 92.512C369.771 92.788 369.579 93.124 369.435 93.52C369.291 93.916 369.219 94.36 369.219 94.852V100H367.653V90.352H368.931L369.111 92.116H369.183C369.375 91.756 369.603 91.432 369.867 91.144C370.143 90.844 370.455 90.61 370.803 90.442C371.151 90.262 371.535 90.172 371.955 90.172ZM378.598 90.172C379.378 90.172 380.05 90.352 380.614 90.712C381.178 91.072 381.61 91.582 381.91 92.242C382.222 92.89 382.378 93.652 382.378 94.528V95.482H376.186C376.21 96.574 376.468 97.408 376.96 97.984C377.452 98.548 378.142 98.83 379.03 98.83C379.606 98.83 380.116 98.776 380.56 98.668C381.016 98.548 381.484 98.38 381.964 98.164V99.55C381.496 99.766 381.034 99.922 380.578 100.018C380.134 100.126 379.594 100.18 378.958 100.18C378.094 100.18 377.332 99.994 376.672 99.622C376.012 99.25 375.496 98.698 375.124 97.966C374.752 97.222 374.566 96.316 374.566 95.248C374.566 94.192 374.734 93.286 375.07 92.53C375.406 91.774 375.874 91.192 376.474 90.784C377.086 90.376 377.794 90.172 378.598 90.172ZM378.598 91.468C377.902 91.468 377.35 91.714 376.942 92.206C376.534 92.686 376.294 93.358 376.222 94.222H380.758C380.758 93.67 380.68 93.19 380.524 92.782C380.368 92.374 380.128 92.056 379.804 91.828C379.492 91.588 379.09 91.468 378.598 91.468ZM388.844 90.19C389.948 90.19 390.77 90.448 391.31 90.964C391.862 91.48 392.138 92.302 392.138 93.43V100H391.004L390.698 98.632H390.626C390.362 98.98 390.092 99.274 389.816 99.514C389.552 99.742 389.24 99.91 388.88 100.018C388.532 100.126 388.1 100.18 387.584 100.18C387.044 100.18 386.558 100.078 386.126 99.874C385.694 99.67 385.352 99.358 385.1 98.938C384.848 98.506 384.722 97.966 384.722 97.318C384.722 96.358 385.076 95.62 385.784 95.104C386.492 94.576 387.584 94.288 389.06 94.24L390.59 94.186V93.61C390.59 92.806 390.428 92.248 390.104 91.936C389.792 91.624 389.342 91.468 388.754 91.468C388.286 91.468 387.836 91.546 387.404 91.702C386.984 91.846 386.582 92.014 386.198 92.206L385.712 91.018C386.12 90.79 386.594 90.598 387.134 90.442C387.674 90.274 388.244 90.19 388.844 90.19ZM389.276 95.338C388.172 95.386 387.404 95.578 386.972 95.914C386.552 96.25 386.342 96.724 386.342 97.336C386.342 97.876 386.492 98.272 386.792 98.524C387.092 98.776 387.482 98.902 387.962 98.902C388.706 98.902 389.33 98.68 389.834 98.236C390.338 97.78 390.59 97.084 390.59 96.148V95.284L389.276 95.338ZM405.679 90.172C406.711 90.172 407.479 90.454 407.983 91.018C408.487 91.57 408.739 92.47 408.739 93.718V100H407.191V93.79C407.191 93.034 407.041 92.464 406.741 92.08C406.453 91.696 405.997 91.504 405.373 91.504C404.509 91.504 403.891 91.774 403.519 92.314C403.159 92.854 402.979 93.64 402.979 94.672V100H401.413V93.79C401.413 93.286 401.347 92.866 401.215 92.53C401.083 92.182 400.885 91.924 400.621 91.756C400.357 91.588 400.015 91.504 399.595 91.504C398.995 91.504 398.521 91.642 398.173 91.918C397.825 92.182 397.579 92.572 397.435 93.088C397.291 93.604 397.219 94.24 397.219 94.996V100H395.653V90.352H396.913L397.147 91.666H397.237C397.429 91.33 397.663 91.054 397.939 90.838C398.215 90.61 398.521 90.442 398.857 90.334C399.193 90.226 399.541 90.172 399.901 90.172C400.597 90.172 401.179 90.304 401.647 90.568C402.115 90.832 402.457 91.24 402.673 91.792H402.781C403.081 91.24 403.489 90.832 404.005 90.568C404.533 90.304 405.091 90.172 405.679 90.172ZM418.204 97.336C418.204 97.96 418.054 98.482 417.754 98.902C417.466 99.322 417.052 99.64 416.512 99.856C415.972 100.072 415.324 100.18 414.568 100.18C413.932 100.18 413.38 100.126 412.912 100.018C412.456 99.91 412.054 99.76 411.706 99.568V98.128C412.078 98.32 412.522 98.5 413.038 98.668C413.554 98.824 414.076 98.902 414.604 98.902C415.336 98.902 415.864 98.776 416.188 98.524C416.524 98.26 416.692 97.912 416.692 97.48C416.692 97.24 416.626 97.024 416.494 96.832C416.374 96.64 416.152 96.448 415.828 96.256C415.516 96.064 415.06 95.848 414.46 95.608C413.884 95.368 413.386 95.128 412.966 94.888C412.558 94.648 412.24 94.36 412.012 94.024C411.796 93.688 411.688 93.256 411.688 92.728C411.688 91.912 412 91.282 412.624 90.838C413.26 90.394 414.088 90.172 415.108 90.172C415.66 90.172 416.176 90.232 416.656 90.352C417.136 90.46 417.592 90.616 418.024 90.82L417.502 92.08C417.25 91.96 416.986 91.858 416.71 91.774C416.434 91.678 416.152 91.606 415.864 91.558C415.588 91.498 415.306 91.468 415.018 91.468C414.43 91.468 413.98 91.576 413.668 91.792C413.356 91.996 413.2 92.278 413.2 92.638C413.2 92.902 413.272 93.13 413.416 93.322C413.56 93.514 413.794 93.7 414.118 93.88C414.454 94.048 414.91 94.246 415.486 94.474C416.062 94.702 416.554 94.936 416.962 95.176C417.37 95.416 417.676 95.71 417.88 96.058C418.096 96.394 418.204 96.82 418.204 97.336ZM427.803 90.352V100H426.237V90.352H427.803ZM427.029 86.734C427.269 86.734 427.479 86.818 427.659 86.986C427.839 87.142 427.929 87.394 427.929 87.742C427.929 88.078 427.839 88.33 427.659 88.498C427.479 88.666 427.269 88.75 427.029 88.75C426.777 88.75 426.561 88.666 426.381 88.498C426.201 88.33 426.111 88.078 426.111 87.742C426.111 87.394 426.201 87.142 426.381 86.986C426.561 86.818 426.777 86.734 427.029 86.734ZM435.797 90.172C436.877 90.172 437.693 90.454 438.245 91.018C438.809 91.57 439.091 92.47 439.091 93.718V100H437.525V93.826C437.525 93.046 437.363 92.464 437.039 92.08C436.715 91.696 436.217 91.504 435.545 91.504C434.561 91.504 433.877 91.804 433.493 92.404C433.121 93.004 432.935 93.868 432.935 94.996V100H431.369V90.352H432.629L432.863 91.666H432.953C433.145 91.33 433.391 91.054 433.691 90.838C433.991 90.61 434.321 90.442 434.681 90.334C435.041 90.226 435.413 90.172 435.797 90.172ZM445.714 98.884C445.942 98.884 446.176 98.866 446.416 98.83C446.656 98.782 446.854 98.734 447.01 98.686V99.892C446.842 99.976 446.602 100.042 446.29 100.09C445.99 100.15 445.702 100.18 445.426 100.18C444.946 100.18 444.502 100.096 444.094 99.928C443.686 99.748 443.356 99.442 443.104 99.01C442.864 98.578 442.744 97.972 442.744 97.192V91.576H441.466V90.82L442.78 90.19L443.374 88.138H444.31V90.352H446.938V91.576H444.31V97.156C444.31 97.744 444.442 98.182 444.706 98.47C444.97 98.746 445.306 98.884 445.714 98.884ZM457.464 95.158C457.464 95.962 457.362 96.676 457.158 97.3C456.966 97.912 456.684 98.434 456.312 98.866C455.94 99.298 455.49 99.628 454.962 99.856C454.434 100.072 453.846 100.18 453.198 100.18C452.598 100.18 452.04 100.072 451.524 99.856C451.02 99.628 450.576 99.298 450.192 98.866C449.82 98.434 449.532 97.912 449.328 97.3C449.124 96.676 449.022 95.962 449.022 95.158C449.022 94.09 449.19 93.19 449.526 92.458C449.874 91.714 450.366 91.15 451.002 90.766C451.638 90.37 452.388 90.172 453.252 90.172C454.08 90.172 454.806 90.37 455.43 90.766C456.066 91.15 456.564 91.714 456.924 92.458C457.284 93.19 457.464 94.09 457.464 95.158ZM450.642 95.158C450.642 95.914 450.732 96.574 450.912 97.138C451.092 97.69 451.374 98.116 451.758 98.416C452.142 98.716 452.634 98.866 453.234 98.866C453.834 98.866 454.326 98.716 454.71 98.416C455.094 98.116 455.376 97.69 455.556 97.138C455.748 96.574 455.844 95.914 455.844 95.158C455.844 94.39 455.748 93.736 455.556 93.196C455.376 92.656 455.094 92.242 454.71 91.954C454.326 91.654 453.828 91.504 453.216 91.504C452.316 91.504 451.662 91.828 451.254 92.476C450.846 93.124 450.642 94.018 450.642 95.158ZM469.928 90.172C470.096 90.172 470.276 90.184 470.468 90.208C470.66 90.22 470.828 90.244 470.972 90.28L470.792 91.738C470.648 91.702 470.486 91.672 470.306 91.648C470.138 91.624 469.976 91.612 469.82 91.612C469.472 91.612 469.142 91.69 468.83 91.846C468.518 92.002 468.236 92.224 467.984 92.512C467.744 92.788 467.552 93.124 467.408 93.52C467.264 93.916 467.192 94.36 467.192 94.852V100H465.626V90.352H466.904L467.084 92.116H467.156C467.348 91.756 467.576 91.432 467.84 91.144C468.116 90.844 468.428 90.61 468.776 90.442C469.124 90.262 469.508 90.172 469.928 90.172ZM476.571 90.172C477.351 90.172 478.023 90.352 478.587 90.712C479.151 91.072 479.583 91.582 479.883 92.242C480.195 92.89 480.351 93.652 480.351 94.528V95.482H474.159C474.183 96.574 474.441 97.408 474.933 97.984C475.425 98.548 476.115 98.83 477.003 98.83C477.579 98.83 478.089 98.776 478.533 98.668C478.989 98.548 479.457 98.38 479.937 98.164V99.55C479.469 99.766 479.007 99.922 478.551 100.018C478.107 100.126 477.567 100.18 476.931 100.18C476.067 100.18 475.305 99.994 474.645 99.622C473.985 99.25 473.469 98.698 473.097 97.966C472.725 97.222 472.539 96.316 472.539 95.248C472.539 94.192 472.707 93.286 473.043 92.53C473.379 91.774 473.847 91.192 474.447 90.784C475.059 90.376 475.767 90.172 476.571 90.172ZM476.571 91.468C475.875 91.468 475.323 91.714 474.915 92.206C474.507 92.686 474.267 93.358 474.195 94.222H478.731C478.731 93.67 478.653 93.19 478.497 92.782C478.341 92.374 478.101 92.056 477.777 91.828C477.465 91.588 477.063 91.468 476.571 91.468ZM486.817 90.19C487.921 90.19 488.743 90.448 489.283 90.964C489.835 91.48 490.111 92.302 490.111 93.43V100H488.977L488.671 98.632H488.599C488.335 98.98 488.065 99.274 487.789 99.514C487.525 99.742 487.213 99.91 486.853 100.018C486.505 100.126 486.073 100.18 485.557 100.18C485.017 100.18 484.531 100.078 484.099 99.874C483.667 99.67 483.325 99.358 483.073 98.938C482.821 98.506 482.695 97.966 482.695 97.318C482.695 96.358 483.049 95.62 483.757 95.104C484.465 94.576 485.557 94.288 487.033 94.24L488.563 94.186V93.61C488.563 92.806 488.401 92.248 488.077 91.936C487.765 91.624 487.315 91.468 486.727 91.468C486.259 91.468 485.809 91.546 485.377 91.702C484.957 91.846 484.555 92.014 484.171 92.206L483.685 91.018C484.093 90.79 484.567 90.598 485.107 90.442C485.647 90.274 486.217 90.19 486.817 90.19ZM487.249 95.338C486.145 95.386 485.377 95.578 484.945 95.914C484.525 96.25 484.315 96.724 484.315 97.336C484.315 97.876 484.465 98.272 484.765 98.524C485.065 98.776 485.455 98.902 485.935 98.902C486.679 98.902 487.303 98.68 487.807 98.236C488.311 97.78 488.563 97.084 488.563 96.148V95.284L487.249 95.338ZM495.192 100H493.626V86.32H495.192V100ZM500.342 90.352V100H498.776V90.352H500.342ZM499.568 86.734C499.808 86.734 500.018 86.818 500.198 86.986C500.378 87.142 500.468 87.394 500.468 87.742C500.468 88.078 500.378 88.33 500.198 88.498C500.018 88.666 499.808 88.75 499.568 88.75C499.316 88.75 499.1 88.666 498.92 88.498C498.74 88.33 498.65 88.078 498.65 87.742C498.65 87.394 498.74 87.142 498.92 86.986C499.1 86.818 499.316 86.734 499.568 86.734ZM507.021 98.884C507.249 98.884 507.483 98.866 507.723 98.83C507.963 98.782 508.161 98.734 508.317 98.686V99.892C508.149 99.976 507.909 100.042 507.597 100.09C507.297 100.15 507.009 100.18 506.733 100.18C506.253 100.18 505.809 100.096 505.401 99.928C504.993 99.748 504.663 99.442 504.411 99.01C504.171 98.578 504.051 97.972 504.051 97.192V91.576H502.773V90.82L504.087 90.19L504.681 88.138H505.617V90.352H508.245V91.576H505.617V97.156C505.617 97.744 505.749 98.182 506.013 98.47C506.277 98.746 506.613 98.884 507.021 98.884ZM509.428 90.352H511.12L513.046 95.842C513.166 96.166 513.274 96.478 513.37 96.778C513.466 97.078 513.55 97.372 513.622 97.66C513.694 97.936 513.748 98.206 513.784 98.47H513.838C513.91 98.17 514.012 97.78 514.144 97.3C514.288 96.808 514.438 96.316 514.594 95.824L516.412 90.352H518.122L514.216 101.332C514 101.932 513.742 102.454 513.442 102.898C513.154 103.354 512.8 103.702 512.38 103.942C511.96 104.194 511.456 104.32 510.868 104.32C510.604 104.32 510.364 104.302 510.148 104.266C509.944 104.242 509.77 104.212 509.626 104.176V102.916C509.746 102.94 509.896 102.964 510.076 102.988C510.256 103.012 510.442 103.024 510.634 103.024C510.982 103.024 511.282 102.952 511.534 102.808C511.786 102.676 512.002 102.478 512.182 102.214C512.362 101.962 512.512 101.662 512.632 101.314L513.082 100.036L509.428 90.352Z" fill="white"/>
</g>
<defs>
<clipPath id="clip0_41_12">
<rect width="882" height="142" fill="white"/>
</clipPath>
</defs>
</svg>
